<?xml version="1.0" encoding="UTF-8"?>
<svg version="1.1" xmlns="http://www.w3.org/2000/svg" width="400" height="400">
<path d="M0 0 C0.77029541 0.16870605 1.54059082 0.33741211 2.33422852 0.51123047 C11.76956461 2.78157506 20.44274558 7.12849705 28.5 12.5 C31.63740266 12.1291055 32.6889389 11.3497077 35.25 9.3125 C46.13974706 1.23906684 62.17876936 -2.34579242 75.5 -1.5 C77.5 0.5 77.5 0.5 77.6953125 2.4453125 C77.63020833 4.46354167 77.56510417 6.48177083 77.5 8.5 C78.923125 8.4690625 78.923125 8.4690625 80.375 8.4375 C83.5 8.5 83.5 8.5 85.5 9.5 C85.5 39.2 85.5 68.9 85.5 99.5 C83.12609164 100.68695418 81.69755049 100.62075833 79.05029297 100.61352539 C78.12948944 100.61344986 77.20868591 100.61337433 76.25997925 100.61329651 C74.76617233 100.60555458 74.76617233 100.60555458 73.2421875 100.59765625 C72.22399933 100.5962413 71.20581116 100.59482635 70.1567688 100.59336853 C66.89614965 100.587759 63.63559849 100.57520488 60.375 100.5625 C58.16796974 100.55748623 55.96093841 100.55292311 53.75390625 100.54882812 C48.33591419 100.53778648 42.91796195 100.52103905 37.5 100.5 C37.52964844 101.44101563 37.55929688 102.38203125 37.58984375 103.3515625 C37.5 106.5 37.5 106.5 36.0625 108.875 C32.27767083 111.27513557 28.8612774 111.2842297 24.5 110.5 C21.9375 108.875 21.9375 108.875 20.5 106.5 C20.44295126 104.50081381 20.43701755 102.49900806 20.5 100.5 C19.94289841 100.50444122 19.38579681 100.50888245 18.81181335 100.51345825 C13.02080853 100.55765735 7.22985151 100.58785214 1.4387207 100.60986328 C-0.72340847 100.61992951 -2.885524 100.63358354 -5.04760742 100.65087891 C-8.15286625 100.67509978 -11.2579453 100.68647681 -14.36328125 100.6953125 C-15.33211746 100.70563507 -16.30095367 100.71595764 -17.29914856 100.72659302 C-18.1998558 100.72674408 -19.10056305 100.72689514 -20.02856445 100.72705078 C-20.82132278 100.731492 -21.61408112 100.73593323 -22.43086243 100.74050903 C-24.5 100.5 -24.5 100.5 -27.5 98.5 C-27.79681708 95.67011387 -27.89895765 93.05874464 -27.87231445 90.2265625 C-27.87596512 89.37116882 -27.87961578 88.51577515 -27.88337708 87.63446045 C-27.89150457 84.7977737 -27.87785434 81.96165425 -27.86328125 79.125 C-27.86276291 77.15966797 -27.86327961 75.19433542 -27.86479187 73.22900391 C-27.86470205 69.10636677 -27.8542523 64.98392479 -27.83618164 60.86132812 C-27.81349415 55.56812341 -27.8129493 50.27520406 -27.81969929 44.98196411 C-27.82303554 40.92258147 -27.81641567 36.86326428 -27.80657005 32.80389404 C-27.80271182 30.85178978 -27.8015724 28.89967824 -27.8031559 26.9475708 C-27.8035254 24.22271776 -27.79093872 21.49823508 -27.7746582 18.7734375 C-27.77713562 17.96090515 -27.77961304 17.1483728 -27.78216553 16.31121826 C-27.72874051 10.72874051 -27.72874051 10.72874051 -25.5 8.5 C-21.875 8.375 -21.875 8.375 -18.5 8.5 C-18.5 5.53 -18.5 2.56 -18.5 -0.5 C-13.13499707 -3.18250147 -5.63800638 -1.2359837 0 0 Z " fill="#F6F8F8" transform="translate(74.5,135.5)"/>
<path d="M0 0 C0.77029541 0.16870605 1.54059082 0.33741211 2.33422852 0.51123047 C11.76956461 2.78157506 20.44274558 7.12849705 28.5 12.5 C31.63740266 12.1291055 32.6889389 11.3497077 35.25 9.3125 C46.13974706 1.23906684 62.17876936 -2.34579242 75.5 -1.5 C77.5 0.5 77.5 0.5 77.6953125 2.4453125 C77.63020833 4.46354167 77.56510417 6.48177083 77.5 8.5 C78.923125 8.4690625 78.923125 8.4690625 80.375 8.4375 C83.5 8.5 83.5 8.5 85.5 9.5 C85.5 39.2 85.5 68.9 85.5 99.5 C83.12609164 100.68695418 81.69755049 100.62075833 79.05029297 100.61352539 C78.12948944 100.61344986 77.20868591 100.61337433 76.25997925 100.61329651 C74.76617233 100.60555458 74.76617233 100.60555458 73.2421875 100.59765625 C72.22399933 100.5962413 71.20581116 100.59482635 70.1567688 100.59336853 C66.89614965 100.587759 63.63559849 100.57520488 60.375 100.5625 C58.16796974 100.55748623 55.96093841 100.55292311 53.75390625 100.54882812 C48.33591419 100.53778648 42.91796195 100.52103905 37.5 100.5 C37.52964844 101.44101563 37.55929688 102.38203125 37.58984375 103.3515625 C37.5 106.5 37.5 106.5 36.0625 108.875 C32.27767083 111.27513557 28.8612774 111.2842297 24.5 110.5 C21.9375 108.875 21.9375 108.875 20.5 106.5 C20.44295126 104.50081381 20.43701755 102.49900806 20.5 100.5 C19.94289841 100.50444122 19.38579681 100.50888245 18.81181335 100.51345825 C13.02080853 100.55765735 7.22985151 100.58785214 1.4387207 100.60986328 C-0.72340847 100.61992951 -2.885524 100.63358354 -5.04760742 100.65087891 C-8.15286625 100.67509978 -11.2579453 100.68647681 -14.36328125 100.6953125 C-15.33211746 100.70563507 -16.30095367 100.71595764 -17.29914856 100.72659302 C-18.1998558 100.72674408 -19.10056305 100.72689514 -20.02856445 100.72705078 C-20.82132278 100.731492 -21.61408112 100.73593323 -22.43086243 100.74050903 C-24.5 100.5 -24.5 100.5 -27.5 98.5 C-27.79681708 95.67011387 -27.89895765 93.05874464 -27.87231445 90.2265625 C-27.87596512 89.37116882 -27.87961578 88.51577515 -27.88337708 87.63446045 C-27.89150457 84.7977737 -27.87785434 81.96165425 -27.86328125 79.125 C-27.86276291 77.15966797 -27.86327961 75.19433542 -27.86479187 73.22900391 C-27.86470205 69.10636677 -27.8542523 64.98392479 -27.83618164 60.86132812 C-27.81349415 55.56812341 -27.8129493 50.27520406 -27.81969929 44.98196411 C-27.82303554 40.92258147 -27.81641567 36.86326428 -27.80657005 32.80389404 C-27.80271182 30.85178978 -27.8015724 28.89967824 -27.8031559 26.9475708 C-27.8035254 24.22271776 -27.79093872 21.49823508 -27.7746582 18.7734375 C-27.77713562 17.96090515 -27.77961304 17.1483728 -27.78216553 16.31121826 C-27.72874051 10.72874051 -27.72874051 10.72874051 -25.5 8.5 C-21.875 8.375 -21.875 8.375 -18.5 8.5 C-18.5 5.53 -18.5 2.56 -18.5 -0.5 C-13.13499707 -3.18250147 -5.63800638 -1.2359837 0 0 Z M-12.5 4.5 C-12.5 29.91 -12.5 55.32 -12.5 81.5 C-6.56 82.82 -0.62 84.14 5.5 85.5 C12.60029662 88.06963116 18.49521134 90.80708712 24.5625 95.265625 C26.67324536 96.61037406 27.99402585 97.33646234 30.5 97.5 C32.79680531 96.25232931 32.79680531 96.25232931 35.0625 94.375 C46.20376759 86.19822174 57.98074853 83.43132164 71.5 81.5 C71.5 56.09 71.5 30.68 71.5 4.5 C57.31169464 5.5914081 46.7822874 7.86126111 35.5 16.5 C34.76007813 17.01304687 34.02015625 17.52609375 33.2578125 18.0546875 C32.38769531 18.77011719 32.38769531 18.77011719 31.5 19.5 C31.5 20.16 31.5 20.82 31.5 21.5 C28.1643146 19.56541972 25.12050673 17.46752855 22.0625 15.125 C12.18644335 8.16318958 -0.45126341 4.5 -12.5 4.5 Z " fill="#434444" transform="translate(74.5,135.5)"/>
<path d="M0 0 C4.44715064 0.06330464 8.63114678 0.70534528 12.96875 1.65625 C13.73904541 1.82495605 14.50934082 1.99366211 15.30297852 2.16748047 C24.73831461 4.43782506 33.41149558 8.78474705 41.46875 14.15625 C44.60615266 13.7853555 45.6576889 13.0059577 48.21875 10.96875 C59.10849706 2.89531684 75.14751936 -0.68954242 88.46875 0.15625 C90.46875 2.15625 90.46875 2.15625 90.6640625 4.1015625 C90.59895833 6.11979167 90.53385417 8.13802083 90.46875 10.15625 C91.891875 10.1253125 91.891875 10.1253125 93.34375 10.09375 C96.46875 10.15625 96.46875 10.15625 98.46875 11.15625 C98.46875 40.85625 98.46875 70.55625 98.46875 101.15625 C82.62875 101.15625 66.78875 101.15625 50.46875 101.15625 C50.46875 100.82625 50.46875 100.49625 50.46875 100.15625 C54.09875 100.15625 57.72875 100.15625 61.46875 100.15625 C61.46875 99.49625 61.46875 98.83625 61.46875 98.15625 C59.98375 97.16625 59.98375 97.16625 58.46875 96.15625 C70.01875 96.15625 81.56875 96.15625 93.46875 96.15625 C93.46875 69.75625 93.46875 43.35625 93.46875 16.15625 C92.14875 16.15625 90.82875 16.15625 89.46875 16.15625 C89.46875 39.58625 89.46875 63.01625 89.46875 87.15625 C85.75170721 89.0147714 84.44553722 89.3782102 80.53125 89.53125 C74.82141053 89.93636579 69.85372347 91.51387795 64.44140625 93.30078125 C60.88794105 94.32339476 58.12387656 94.49626177 54.46875 94.15625 C54.59375 92.3203125 54.59375 92.3203125 55.46875 90.15625 C64.5360664 85.27177301 74.29266849 83.15625 84.46875 83.15625 C84.46875 57.74625 84.46875 32.33625 84.46875 6.15625 C69.5515855 8.95321834 57.06019427 11.3233368 45.46875 21.15625 C45.13875 21.81625 44.80875 22.47625 44.46875 23.15625 C41.22358742 22.55582344 39.3747324 21.49565675 36.84375 19.40625 C25.49184825 10.64005921 13.55525968 8.32340534 -0.53125 6.15625 C-0.53125 31.56625 -0.53125 56.97625 -0.53125 83.15625 C-0.86125 83.15625 -1.19125 83.15625 -1.53125 83.15625 C-1.86125 59.06625 -2.19125 34.97625 -2.53125 10.15625 C-3.52125 10.65125 -3.52125 10.65125 -4.53125 11.15625 C-4.55813151 9.51050434 -4.57759123 7.86463587 -4.59375 6.21875 C-4.60535156 5.30222656 -4.61695313 4.38570312 -4.62890625 3.44140625 C-4.46865198 -0.30854364 -3.89761891 0.17246101 0 0 Z " fill="#1D1E1E" transform="translate(61.53125,133.84375)"/>
<path d="M0 0 C0.33 0 0.66 0 1 0 C1.33 2.97 1.66 5.94 2 9 C3.32 7.68 4.64 6.36 6 5 C6 30.41 6 55.82 6 82 C7.98 82 9.96 82 12 82 C12 82.33 12 82.66 12 83 C9.69 83 7.38 83 5 83 C4.67 83.99 4.34 84.98 4 86 C3.34 86 2.68 86 2 86 C2 63.23 2 40.46 2 17 C1.67 40.1 1.34 63.2 1 87 C7.93 87.495 7.93 87.495 15 88 C18.08552627 88.715882 20.8574548 89.41882613 23.8125 90.4375 C24.50408203 90.65470703 25.19566406 90.87191406 25.90820312 91.09570312 C27.63031789 91.65958141 29.31972023 92.32154742 31 93 C31.33 93.66 31.66 94.32 32 95 C20.12 95 8.24 95 -4 95 C-4.33 78.17 -4.66 61.34 -5 44 C-5.33 44 -5.66 44 -6 44 C-6.33 38.06 -6.66 32.12 -7 26 C-7.33 50.09 -7.66 74.18 -8 99 C-8.33 99 -8.66 99 -9 99 C-9.04626844 87.56078364 -9.08184119 76.12158941 -9.10362434 64.68229866 C-9.11407729 59.37101062 -9.12826397 54.05978644 -9.15087891 48.74853516 C-9.17255352 43.62627405 -9.18455723 38.5040745 -9.18975449 33.38177109 C-9.19345994 31.4240713 -9.20069541 29.46637502 -9.21146011 27.50870132 C-9.22590357 24.77411779 -9.22798096 22.0397911 -9.22705078 19.30517578 C-9.23424133 18.48950134 -9.24143188 17.6738269 -9.24884033 16.83343506 C-9.22810432 11.22810432 -9.22810432 11.22810432 -7 9 C-3.375 8.875 -3.375 8.875 0 9 C0 6.03 0 3.06 0 0 Z " fill="#4E4E4E" transform="translate(56,135)"/>
<path d="M0 0 C3.34125 -0.103125 6.6825 -0.20625 10.125 -0.3125 C11.68758545 -0.38078003 11.68758545 -0.38078003 13.28173828 -0.45043945 C17.71383496 -0.51650745 21.04429446 -0.51960492 24.64453125 2.265625 C27.7703556 5.89427681 27.7703556 5.89427681 27.5625 9.0625 C27.0255166 12.82138382 26.63043554 14.36956446 24 17 C24.9590625 18.051875 24.9590625 18.051875 25.9375 19.125 C28.22912265 22.31938309 28.91849905 24.08795445 29 28 C27.523416 31.1746556 25.74403792 33.80476966 23 36 C20.09817776 36.9153163 17.48533607 37.11814416 14.453125 37.09765625 C13.69161133 37.09515869 12.93009766 37.09266113 12.14550781 37.09008789 C11.18999023 37.08098389 10.23447266 37.07187988 9.25 37.0625 C4.67125 37.0315625 4.67125 37.0315625 0 37 C0 24.79 0 12.58 0 0 Z M9 6 C9 8.97 9 11.94 9 15 C14.31925322 14.94245508 14.31925322 14.94245508 19 13 C19.04063832 11.33382885 19.042721 9.66611905 19 8 C15.5980513 5.90649311 12.94727588 5.82057837 9 6 Z M9 21 C9 23.97 9 26.94 9 30 C10.8871875 30.061875 10.8871875 30.061875 12.8125 30.125 C13.52019531 30.14820313 14.22789062 30.17140625 14.95703125 30.1953125 C17.31359719 30.13254462 17.31359719 30.13254462 20 28 C20.25030977 25.41619823 20.25030977 25.41619823 20 23 C16.17010894 21.19769832 13.21878192 20.80377759 9 21 Z " fill="#333434" transform="translate(181,152)"/>
<path d="M0 0 C4.03634071 2.0929174 6.37322858 3.75747004 8 8 C8.22705078 10.65722656 8.22705078 10.65722656 8.1953125 13.640625 C8.18886719 14.71054688 8.18242187 15.78046875 8.17578125 16.8828125 C8.15902344 17.99398437 8.14226562 19.10515625 8.125 20.25 C8.11597656 21.37664062 8.10695312 22.50328125 8.09765625 23.6640625 C8.07410658 26.44292365 8.0412168 29.2213539 8 32 C4.7 32 1.4 32 -2 32 C-2.07347656 29.76089844 -2.07347656 29.76089844 -2.1484375 27.4765625 C-2.22345827 25.52602237 -2.2990064 23.57550247 -2.375 21.625 C-2.4059375 20.64015625 -2.436875 19.6553125 -2.46875 18.640625 C-2.50742188 17.69960937 -2.54609375 16.75859375 -2.5859375 15.7890625 C-2.63306885 14.48509521 -2.63306885 14.48509521 -2.68115234 13.15478516 C-2.81229433 10.79038206 -2.81229433 10.79038206 -5 9 C-7.5 8.58333333 -7.5 8.58333333 -10 9 C-12.08745045 12.13117567 -12.27653996 13.06946224 -12.4140625 16.66796875 C-12.47207031 18.00698242 -12.47207031 18.00698242 -12.53125 19.37304688 C-12.57765625 20.76620117 -12.57765625 20.76620117 -12.625 22.1875 C-12.68300781 23.59805664 -12.68300781 23.59805664 -12.7421875 25.03710938 C-12.83642674 27.35775066 -12.91930123 29.67884841 -13 32 C-15.97 32 -18.94 32 -22 32 C-22 21.77 -22 11.54 -22 1 C-19.03 1 -16.06 1 -13 1 C-12.67 1.66 -12.34 2.32 -12 3 C-11.505 2.505 -11.01 2.01 -10.5 1.5 C-7.03305414 -0.58016751 -3.89273787 -0.68122913 0 0 Z " fill="#0F84CF" transform="translate(121,175)"/>
<path d="M0 0 C4.44715064 0.06330464 8.63114678 0.70534528 12.96875 1.65625 C13.73904541 1.82495605 14.50934082 1.99366211 15.30297852 2.16748047 C24.73831461 4.43782506 33.41149558 8.78474705 41.46875 14.15625 C44.60615266 13.7853555 45.6576889 13.0059577 48.21875 10.96875 C59.34655504 2.71882558 74.93119037 -0.28760441 88.46875 0.15625 C88.46875 0.48625 88.46875 0.81625 88.46875 1.15625 C86.15875 1.48625 83.84875 1.81625 81.46875 2.15625 C82.45875 2.65125 82.45875 2.65125 83.46875 3.15625 C83.46875 3.81625 83.46875 4.47625 83.46875 5.15625 C79.67697371 6.82971551 76.10742952 7.64161041 72.03125 8.34375 C62.23957722 10.3639267 53.02872751 14.49854828 45.46875 21.15625 C45.13875 21.81625 44.80875 22.47625 44.46875 23.15625 C41.22358742 22.55582344 39.3747324 21.49565675 36.84375 19.40625 C25.49184825 10.64005921 13.55525968 8.32340534 -0.53125 6.15625 C-0.53125 31.56625 -0.53125 56.97625 -0.53125 83.15625 C-0.86125 83.15625 -1.19125 83.15625 -1.53125 83.15625 C-1.86125 59.06625 -2.19125 34.97625 -2.53125 10.15625 C-3.52125 10.65125 -3.52125 10.65125 -4.53125 11.15625 C-4.55813151 9.51050434 -4.57759123 7.86463587 -4.59375 6.21875 C-4.60535156 5.30222656 -4.61695313 4.38570312 -4.62890625 3.44140625 C-4.46865198 -0.30854364 -3.89761891 0.17246101 0 0 Z " fill="#2B2B2B" transform="translate(61.53125,133.84375)"/>
<path d="M0 0 C2.64 0 5.28 0 8 0 C8 12.21 8 24.42 8 37 C4.9475 37.04125 1.895 37.0825 -1.25 37.125 C-2.68327637 37.15231201 -2.68327637 37.15231201 -4.14550781 37.18017578 C-5.28777832 37.18766846 -5.28777832 37.18766846 -6.453125 37.1953125 C-7.22817383 37.20578613 -8.00322266 37.21625977 -8.80175781 37.22705078 C-11.31724574 36.9672325 -12.86661368 36.34635054 -15 35 C-18.10018839 30.34971741 -18.61653274 26.40818194 -18 21 C-16.97357017 16.55213741 -15.73054788 13.7222917 -12 11 C-7.36718327 9.90497059 -4.7512698 10.04974604 0 11 C0 7.37 0 3.74 0 0 Z M-8.8125 19.625 C-10.38563147 22.77126293 -9.83607904 24.65568383 -9 28 C-7.02 28.66 -5.04 29.32 -3 30 C-1.37506099 28.87890434 -1.37506099 28.87890434 0 27 C0.40186757 23.78505943 0.57455806 21.8618371 -1.25 19.125 C-4.14177695 17.26600053 -6.27348723 17.34864372 -8.8125 19.625 Z " fill="#4597C6" transform="translate(309,199)"/>
<path d="M0 0 C1.134375 0.020625 2.26875 0.04125 3.4375 0.0625 C3.49808594 1.20589844 3.55867187 2.34929687 3.62109375 3.52734375 C3.70548428 5.01824305 3.79013302 6.50912775 3.875 8 C3.91431641 8.75474609 3.95363281 9.50949219 3.99414062 10.28710938 C3.87788024 13.98194187 3.87788024 13.98194187 5.4375 17.0625 C6.076875 16.0725 6.71625 15.0825 7.375 14.0625 C9.1495224 11.87768341 9.96270718 11.14348473 12.7734375 10.6640625 C15.02127811 10.68533544 17.20560054 10.79992359 19.4375 11.0625 C17.88048069 15.73355792 15.35302627 19.14955685 12.4375 23.0625 C13.3346875 24.3928125 13.3346875 24.3928125 14.25 25.75 C19.12980769 33.13942308 19.12980769 33.13942308 20.4375 37.0625 C17.30641827 37.56347308 14.54998066 37.74177102 11.4375 37.0625 C8.30315051 34.23771589 6.31062525 30.8087505 4.4375 27.0625 C4.1075 30.3625 3.7775 33.6625 3.4375 37.0625 C1.10455225 37.10491723 -1.22952567 37.10342937 -3.5625 37.0625 C-5.32322584 35.30177416 -4.69084784 32.9835371 -4.70144653 30.6385498 C-4.6994223 29.88126587 -4.69739807 29.12398193 -4.6953125 28.34375 C-4.69626923 27.57067505 -4.69722595 26.7976001 -4.69821167 26.00109863 C-4.69889341 24.36352456 -4.69703957 22.72594781 -4.69287109 21.08837891 C-4.68752271 18.57318079 -4.69281626 16.05816127 -4.69921875 13.54296875 C-4.69855797 11.95572877 -4.6972768 10.3684889 -4.6953125 8.78125 C-4.69733673 8.02396606 -4.69936096 7.26668213 -4.70144653 6.4864502 C-4.67250006 0.08197369 -4.67250006 0.08197369 0 0 Z " fill="#5DA3C9" transform="translate(247.5625,198.9375)"/>
<path d="M0 0 C3.46496564 1.71126875 5.50903867 4.10734304 7.375 7.5 C8.03119334 10.12477335 8.22449882 12.3060142 8 15 C7 16 7 16 3.18359375 16.09765625 C1.60153318 16.09098089 0.01948841 16.07901875 -1.5625 16.0625 C-2.36880859 16.05798828 -3.17511719 16.05347656 -4.00585938 16.04882812 C-6.00393756 16.03700518 -8.00197783 16.01906914 -10 16 C-9.67 17.32 -9.34 18.64 -9 20 C-5.58343976 20.16677282 -5.58343976 20.16677282 -2 20 C-1.34 19.34 -0.68 18.68 0 18 C3.625 17.875 3.625 17.875 7 18 C6.72342508 21.31889905 6.21633092 22.76400263 3.9375 25.25 C0.31481671 27.4081943 -2.82124233 28.32262467 -7 28 C-11.04636235 26.77164 -14.06023669 24.96913092 -17 21.9375 C-19.03891138 15.94819782 -19.0437571 10.12479125 -16.25 4.4375 C-11.64564842 -0.55054754 -6.53007414 -1.00938054 0 0 Z M-8 6 C-8.66 7.32 -9.32 8.64 -10 10 C-6.7 10 -3.4 10 0 10 C-0.66 8.68 -1.32 7.36 -2 6 C-3.98 6 -5.96 6 -8 6 Z " fill="#3D3D3E" transform="translate(230,162)"/>
<path d="M0 0 C3.10223297 1.57920511 5.49705091 3.5027827 6.64404297 6.91723633 C7.00180235 9.01054586 7.12931698 10.9516911 7.1328125 13.07421875 C7.13474609 14.19860352 7.13474609 14.19860352 7.13671875 15.34570312 C7.13285156 16.11849609 7.12898438 16.89128906 7.125 17.6875 C7.13080078 18.8640918 7.13080078 18.8640918 7.13671875 20.06445312 C7.12667749 25.87332251 7.12667749 25.87332251 6 27 C3.66705225 27.04241723 1.33297433 27.04092937 -1 27 C-3.31051721 26.93462795 -3.31051721 26.93462795 -6.75 27.75 C-10.15971117 28.17233217 -11.09762078 27.95740184 -14.4375 26.5 C-17 24 -17 24 -18.125 20.5625 C-17.97104861 16.17488546 -17.10403797 15.03371996 -14 12 C-10.765625 11.07421875 -10.765625 11.07421875 -7.25 10.6875 C-5.49429687 10.47673828 -5.49429687 10.47673828 -3.703125 10.26171875 C-2.81109375 10.17535156 -1.9190625 10.08898437 -1 10 C-1.33 8.68 -1.66 7.36 -2 6 C-6.33229715 6.8604139 -6.33229715 6.8604139 -10 9 C-12.33297433 9.04092937 -14.66705225 9.04241723 -17 9 C-16.80037128 5.40668306 -16.21261372 4.20171045 -13.5625 1.6875 C-8.8961614 -0.52287092 -5.07830417 -0.96298475 0 0 Z M-9 16 C-9.33 17.32 -9.66 18.64 -10 20 C-7.525 20.99 -7.525 20.99 -5 22 C-3.62437146 20.71034824 -2.29233607 19.37310707 -1 18 C-1 17.34 -1 16.68 -1 16 C-3.64 16 -6.28 16 -9 16 Z " fill="#363738" transform="translate(310,162)"/>
<path d="M0 0 C1.32 0 2.64 0 4 0 C4 26.4 4 52.8 4 80 C-7.88 80 -19.76 80 -32 80 C-24.52682099 74.39511574 -15.45995351 72.65444862 -6.2421875 72.17578125 C-3.83017471 72.07734369 -3.83017471 72.07734369 -1 71 C-0.67 47.57 -0.34 24.14 0 0 Z " fill="#D0D2D1" transform="translate(151,150)"/>
<path d="M0 0 C2.82633962 2.49426316 3.19127712 4.68368517 3.5625 8.375 C3.63088943 9.9365586 3.68142993 11.49945633 3.6875 13.0625 C2.08068359 13.13597656 2.08068359 13.13597656 0.44140625 13.2109375 C-0.95575639 13.28595294 -2.3528905 13.3615013 -3.75 13.4375 C-4.45705078 13.4684375 -5.16410156 13.499375 -5.89257812 13.53125 C-7.70489188 13.63530629 -9.51067988 13.84169892 -11.3125 14.0625 C-11.6425 14.7225 -11.9725 15.3825 -12.3125 16.0625 C-8.17156302 16.27220559 -8.17156302 16.27220559 -4.3125 15.0625 C-1.6401379 14.92834528 1.01000488 15.01931459 3.6875 15.0625 C2.51187459 19.47109528 1.65344822 21.72554611 -2.3125 24.0625 C-7.48417999 24.9416064 -12.71105802 24.78225616 -17.4375 22.375 C-20.3125 20.0625 -20.3125 20.0625 -21.25 17.8125 C-21.270625 16.905 -21.29125 15.9975 -21.3125 15.0625 C-21.395 13.763125 -21.4775 12.46375 -21.5625 11.125 C-21.49460595 7.12679456 -20.58013939 4.42486186 -18.3125 1.0625 C-12.08927533 -3.56502604 -6.77531494 -3.96292006 0 0 Z M-11.3125 4.0625 C-11.6425 5.0525 -11.9725 6.0425 -12.3125 7.0625 C-10.0025 7.0625 -7.6925 7.0625 -5.3125 7.0625 C-5.6425 6.0725 -5.9725 5.0825 -6.3125 4.0625 C-7.9625 4.0625 -9.6125 4.0625 -11.3125 4.0625 Z " fill="#207AB6" transform="translate(286.3125,211.9375)"/>
<path d="M0 0 C2.67578125 1.87890625 2.67578125 1.87890625 5 5 C5.61026393 8.62437236 5.47236432 12.15037745 5.3125 15.8125 C5.28994141 16.79154297 5.26738281 17.77058594 5.24414062 18.77929688 C5.18539727 21.18777455 5.10332129 23.59309078 5 26 C2.36 26 -0.28 26 -3 26 C-3.06058594 24.86820313 -3.12117187 23.73640625 -3.18359375 22.5703125 C-3.26799917 21.08852855 -3.35264717 19.6067584 -3.4375 18.125 C-3.47681641 17.37863281 -3.51613281 16.63226563 -3.55664062 15.86328125 C-3.71573624 11.80013136 -3.71573624 11.80013136 -5 8 C-5.99 7.67 -6.98 7.34 -8 7 C-8 7.66 -8 8.32 -8 9 C-8.66 9 -9.32 9 -10 9 C-9.98839844 9.97582031 -9.97679687 10.95164063 -9.96484375 11.95703125 C-9.95582031 13.22933594 -9.94679687 14.50164062 -9.9375 15.8125 C-9.92589844 17.07707031 -9.91429687 18.34164062 -9.90234375 19.64453125 C-10 23 -10 23 -11 26 C-13.33294775 26.04241723 -15.66702567 26.04092937 -18 26 C-19 25 -19 25 -19.11352539 22.59155273 C-19.10828857 21.54942627 -19.10305176 20.5072998 -19.09765625 19.43359375 C-19.09443359 18.30888672 -19.09121094 17.18417969 -19.08789062 16.02539062 C-19.07951172 14.84138672 -19.07113281 13.65738281 -19.0625 12.4375 C-19.05798828 11.24962891 -19.05347656 10.06175781 -19.04882812 8.83789062 C-19.03699675 5.89187774 -19.02051287 2.94596319 -19 0 C-18.31292969 0.01160156 -17.62585938 0.02320313 -16.91796875 0.03515625 C-15.56638672 0.04869141 -15.56638672 0.04869141 -14.1875 0.0625 C-12.84751953 0.07990234 -12.84751953 0.07990234 -11.48046875 0.09765625 C-1.10946746 -0.31065089 -1.10946746 -0.31065089 0 0 Z " fill="#71B4D9" transform="translate(235,210)"/>
<path d="M0 0 C4.29172298 2.36019548 4.29172298 2.36019548 6 5 C6.72719962 8.79876479 6.56711454 12.46282024 6.375 16.3125 C6.34792969 17.33923828 6.32085937 18.36597656 6.29296875 19.42382812 C6.22243254 21.95137576 6.12393429 24.47460043 6 27 C3 27 0 27 -3 27 C-4.2375 27.2475 -5.475 27.495 -6.75 27.75 C-10.15971117 28.17233217 -11.09762078 27.95740184 -14.4375 26.5 C-17 24 -17 24 -18.125 20.5625 C-18 17 -18 17 -16.8125 14.25 C-12.44510768 10.75608615 -7.41246098 10.04674953 -2 9 C-2.33 8.34 -2.66 7.68 -3 7 C-5.41645782 6.83312552 -5.41645782 6.83312552 -8 7 C-8.66 7.66 -9.32 8.32 -10 9 C-13.625 9.125 -13.625 9.125 -17 9 C-16.73309994 5.79719931 -16.16670984 4.2056088 -14.125 1.6875 C-9.57976691 -0.76692587 -5.04453829 -1.1264503 0 0 Z M-9 16 C-9.33 17.65 -9.66 19.3 -10 21 C-7.70705512 21.85974801 -7.70705512 21.85974801 -5 22 C-2.62419982 20.29118236 -2.62419982 20.29118236 -1 18 C-1 17.34 -1 16.68 -1 16 C-3.64 16 -6.28 16 -9 16 Z " fill="#2B2B2B" transform="translate(270,162)"/>
<path d="M0 0 C0.33 0 0.66 0 1 0 C1 25.74 1 51.48 1 78 C13.54 78 26.08 78 39 78 C38.505 79.98 38.505 79.98 38 82 C39.98 82 41.96 82 44 82 C44 82.33 44 82.66 44 83 C28.49 83 12.98 83 -3 83 C-3 58.25 -3 33.5 -3 8 C-2.01 8.495 -2.01 8.495 -1 9 C-0.67 6.03 -0.34 3.06 0 0 Z " fill="#1C1C1C" transform="translate(51,152)"/>
<path d="M0 0 C2.88160629 2.63725956 4.70018907 4.37564338 5.41650391 8.2565918 C5.52719094 10.79304325 5.48635483 13.27629766 5.375 15.8125 C5.35373047 17.11864258 5.35373047 17.11864258 5.33203125 18.45117188 C5.18318536 24.81681464 5.18318536 24.81681464 4 26 C1.66702567 26.04092937 -0.66705225 26.04241723 -3 26 C-3.06058594 25.28714844 -3.12117188 24.57429688 -3.18359375 23.83984375 C-3.64808101 18.53039712 -4.18075251 13.266591 -5 8 C-6.32 7.67 -7.64 7.34 -9 7 C-10.18031238 10.84841348 -10.33235351 14.758279 -10.5625 18.75 C-10.60568359 19.44738281 -10.64886719 20.14476562 -10.69335938 20.86328125 C-10.79889596 22.57531922 -10.8998991 24.28763561 -11 26 C-13.64 26 -16.28 26 -19 26 C-19 17.42 -19 8.84 -19 0 C-15.7 0 -12.4 0 -9 0 C-5.34946515 -1.21684495 -3.68135956 -1.10440787 0 0 Z " fill="#4FA5D9" transform="translate(351,210)"/>
<path d="M0 0 C2.64 0 5.28 0 8 0 C9.80394875 1.80394875 9.23705789 4.56677799 9.31640625 7.00390625 C9.37924805 8.82631836 9.37924805 8.82631836 9.44335938 10.68554688 C9.48267578 11.96494141 9.52199219 13.24433594 9.5625 14.5625 C9.60568359 15.84576172 9.64886719 17.12902344 9.69335938 18.45117188 C9.79984719 21.63397445 9.90046421 24.81697243 10 28 C13.96 28.33 17.92 28.66 22 29 C22 31.64 22 34.28 22 37 C14.74 37 7.48 37 0 37 C0 24.79 0 12.58 0 0 Z " fill="#49A2D6" transform="translate(181,199)"/>
<path d="M0 0 C0.99 0 1.98 0 3 0 C3.33 23.43 3.66 46.86 4 71 C12.415 72.485 12.415 72.485 21 74 C30.8902439 76.71981707 30.8902439 76.71981707 34 78 C34.33 78.66 34.66 79.32 35 80 C23.45 80 11.9 80 0 80 C0 53.6 0 27.2 0 0 Z " fill="#E8E9E9" transform="translate(53,150)"/>
<path d="M0 0 C3.5 0.125 3.5 0.125 4.5 1.125 C4.60091475 3.70689446 4.63971499 6.261465 4.6328125 8.84375 C4.63376923 9.61682495 4.63472595 10.3898999 4.63571167 11.18640137 C4.63639341 12.82397544 4.63453957 14.46155219 4.63037109 16.09912109 C4.62502271 18.61431921 4.63031626 21.12933873 4.63671875 23.64453125 C4.63605797 25.23177123 4.6347768 26.8190111 4.6328125 28.40625 C4.63483673 29.16353394 4.63686096 29.92081787 4.63894653 30.7010498 C4.61495132 36.01004868 4.61495132 36.01004868 3.5 37.125 C0 37.25 0 37.25 -3.5 37.125 C-5.26072584 35.36427416 -4.62834784 33.0460371 -4.63894653 30.7010498 C-4.6369223 29.94376587 -4.63489807 29.18648193 -4.6328125 28.40625 C-4.63376923 27.63317505 -4.63472595 26.8601001 -4.63571167 26.06359863 C-4.63639341 24.42602456 -4.63453957 22.78844781 -4.63037109 21.15087891 C-4.62502271 18.63568079 -4.63031626 16.12066127 -4.63671875 13.60546875 C-4.63605797 12.01822877 -4.6347768 10.4309889 -4.6328125 8.84375 C-4.63483673 8.08646606 -4.63686096 7.32918213 -4.63894653 6.5489502 C-4.61009123 0.16464612 -4.61009123 0.16464612 0 0 Z " fill="#1280C6" transform="translate(324.5,198.875)"/>
<path d="M0 0 C3.3 0 6.6 0 10 0 C10 10.23 10 20.46 10 31 C6.7 31 3.4 31 0 31 C0 20.77 0 10.54 0 0 Z " fill="#1E84C2" transform="translate(83,176)"/>
<path d="M0 0 C2.64 0 5.28 0 8 0 C8 12.54 8 25.08 8 38 C5.36 38 2.72 38 0 38 C0 25.46 0 12.92 0 0 Z " fill="#303131" transform="translate(241,151)"/>
<path d="M0 0 C1.134375 0.020625 2.26875 0.04125 3.4375 0.0625 C3.53653473 4.54648784 3.60904483 9.02989292 3.65722656 13.51464844 C3.67731599 15.03950085 3.70459316 16.56427648 3.73925781 18.08886719 C3.78789796 20.28339598 3.81049396 22.47690469 3.828125 24.671875 C3.84907227 25.99155273 3.87001953 27.31123047 3.89160156 28.67089844 C3.4375 32.0625 3.4375 32.0625 1.546875 34.5 C-1.87542173 37.03503461 -4.41099097 36.33926727 -8.5625 36.0625 C-8.5625 34.0825 -8.5625 32.1025 -8.5625 30.0625 C-7.5725 29.7325 -6.5825 29.4025 -5.5625 29.0625 C-5.53744385 28.21953369 -5.5123877 27.37656738 -5.48657227 26.50805664 C-5.39161845 23.39008326 -5.29237552 20.27228497 -5.19018555 17.15454102 C-5.14678777 15.80335853 -5.1051163 14.45211947 -5.06518555 13.10083008 C-5.00760048 11.16213299 -4.94335702 9.22363724 -4.87890625 7.28515625 C-4.84224854 6.11734619 -4.80559082 4.94953613 -4.76782227 3.74633789 C-4.45586611 -0.33134827 -4.24506341 0.0744748 0 0 Z " fill="#313233" transform="translate(285.5625,161.9375)"/>
<path d="M0 0 C1.134375 0.020625 2.26875 0.04125 3.4375 0.0625 C3.7675 0.7225 4.0975 1.3825 4.4375 2.0625 C5.0975 1.4025 5.7575 0.7425 6.4375 0.0625 C9.5625 -0.0625 9.5625 -0.0625 12.4375 0.0625 C12.4375 2.7025 12.4375 5.3425 12.4375 8.0625 C11.303125 8.35125 10.16875 8.64 9 8.9375 C7.824375 9.30875 6.64875 9.68 5.4375 10.0625 C3.91643366 13.10463267 4.06320662 16.34297572 3.875 19.6875 C3.83181641 20.39390625 3.78863281 21.1003125 3.74414062 21.828125 C3.63805249 23.57268537 3.53727111 25.31756697 3.4375 27.0625 C1.10455225 27.10491723 -1.22952567 27.10342937 -3.5625 27.0625 C-5.30795605 25.31704395 -4.6927316 22.90125783 -4.6953125 20.53125 C-4.69660156 19.41105469 -4.69789063 18.29085937 -4.69921875 17.13671875 C-4.69535156 15.95722656 -4.69148438 14.77773437 -4.6875 13.5625 C-4.69136719 12.38300781 -4.69523437 11.20351562 -4.69921875 9.98828125 C-4.69792969 8.86808594 -4.69664062 7.74789062 -4.6953125 6.59375 C-4.69418457 5.55798828 -4.69305664 4.52222656 -4.69189453 3.45507812 C-4.48336052 -0.40083379 -4.01923136 0.07051283 0 0 Z " fill="#3F4141" transform="translate(324.5625,161.9375)"/>
<path d="M0 0 C2 2 2 2 2.1953125 4.3125 C2.16050781 5.6428125 2.16050781 5.6428125 2.125 7 C2.10695313 7.886875 2.08890625 8.77375 2.0703125 9.6875 C2.03550781 10.8321875 2.03550781 10.8321875 2 12 C2 12.66 2 13.32 2 14 C2 25 2 36 2 47 C-1.63 47 -5.26 47 -9 47 C-9 46.67 -9 46.34 -9 46 C-5.7 46 -2.4 46 1 46 C1 35.77 1 25.54 1 15 C-2.3 15 -5.6 15 -9 15 C-9 24.9 -9 34.8 -9 45 C-9.66 44.67 -10.32 44.34 -11 44 C-11.02902168 39.58334712 -11.04680608 35.16671877 -11.0625 30.75 C-11.07087891 29.49574219 -11.07925781 28.24148437 -11.08789062 26.94921875 C-11.09111328 25.74394531 -11.09433594 24.53867188 -11.09765625 23.296875 C-11.10289307 22.18666992 -11.10812988 21.07646484 -11.11352539 19.93261719 C-11.01584159 17.40922394 -10.87561239 15.36121749 -10 13 C-9.34 12.67 -8.68 12.34 -8 12 C-8.495 10.9171875 -8.495 10.9171875 -9 9.8125 C-10.0391447 6.88990554 -10.48337783 5.06139292 -10 2 C-6.89011997 -1.58832311 -4.37100102 -1.2352829 0 0 Z " fill="#D7F5FC" transform="translate(92,161)"/>
<path d="M0 0 C2 2 2 2 2.24723816 4.36839294 C2.24581314 5.36113724 2.24438812 6.35388153 2.24291992 7.37670898 C2.24599655 8.50225693 2.24907318 9.62780487 2.25224304 10.78746033 C2.24505753 12.01130936 2.23787201 13.23515839 2.23046875 14.49609375 C2.23001053 15.75454605 2.22955231 17.01299835 2.2290802 18.30958557 C2.22605238 20.9821605 2.21921939 23.65439408 2.20581055 26.3269043 C2.18897552 29.72243899 2.18499185 33.11782475 2.18575573 36.51339626 C2.18541481 39.77847642 2.17654563 43.04352637 2.16796875 46.30859375 C2.16685593 47.5142247 2.1657431 48.71985565 2.16459656 49.96202087 C2.12553425 57.02718075 1.77659592 63.97667561 1 71 C1.44947998 70.51394287 1.89895996 70.02788574 2.36206055 69.52709961 C5.14515858 66.93233464 8.0909796 67.54417261 11.734375 67.63671875 C17.97869585 68.3313621 26.43074646 69.43074646 31 74 C24.55223177 75.94030062 20.57810657 75.90669756 14 74 C9.38 73.34 4.76 72.68 0 72 C0 48.24 0 24.48 0 0 Z " fill="#181A19" transform="translate(57,150)"/>
<path d="M0 0 C2.31 0 4.62 0 7 0 C7.33 5.28 7.66 10.56 8 16 C11.61029169 16 14.55806676 15.03907418 18 14 C17.67 15.65 17.34 17.3 17 19 C16.67 18.34 16.34 17.68 16 17 C15.34 17.33 14.68 17.66 14 18 C13.34444881 20.52733235 13.34444881 20.52733235 13 23 C12.67 22.01 12.34 21.02 12 20 C11.01 20 10.02 20 9 20 C8.67 20.99 8.34 21.98 8 23 C7.34 23 6.68 23 6 23 C6 26.96 6 30.92 6 35 C4.35 35 2.7 35 1 35 C0.505 17.675 0.505 17.675 0 0 Z " fill="#137FC2" transform="translate(244,199)"/>
<path d="M0 0 C0.66 0.33 1.32 0.66 2 1 C1.67 2.32 1.34 3.64 1 5 C0.34 5 -0.32 5 -1 5 C-1.02696365 6.79158489 -1.04637917 8.58328473 -1.0625 10.375 C-1.07410156 11.37273437 -1.08570313 12.37046875 -1.09765625 13.3984375 C-1.18006602 15.98432453 -1.18006602 15.98432453 0 18 C0.33 16.35 0.66 14.7 1 13 C6.94 13 12.88 13 19 13 C19 11.35 19 9.7 19 8 C19.33 8 19.66 8 20 8 C20 9.98 20 11.96 20 14 C18.39318359 14.07347656 18.39318359 14.07347656 16.75390625 14.1484375 C15.35674361 14.22345294 13.9596095 14.2990013 12.5625 14.375 C11.85544922 14.4059375 11.14839844 14.436875 10.41992188 14.46875 C8.60760812 14.57280629 6.80182012 14.77919892 5 15 C4.67 15.66 4.34 16.32 4 17 C8.14093698 17.20970559 8.14093698 17.20970559 12 16 C14.6723621 15.86584528 17.32250488 15.95681459 20 16 C18.82437459 20.40859528 17.96594822 22.66304611 14 25 C8.82832001 25.8791064 3.60144198 25.71975616 -1.125 23.3125 C-4 21 -4 21 -4.9375 18.75 C-4.958125 17.8425 -4.97875 16.935 -5 16 C-5.0825 14.700625 -5.165 13.40125 -5.25 12.0625 C-5.19401231 7.12625226 -3.49672937 3.49672937 0 0 Z " fill="#55A4D1" transform="translate(270,211)"/>
<path d="M0 0 C0 0.33 0 0.66 0 1 C-2.31 1.33 -4.62 1.66 -7 2 C-6.34 2.33 -5.68 2.66 -5 3 C-5 3.66 -5 4.32 -5 5 C-8.79177629 6.67346551 -12.36132048 7.48536041 -16.4375 8.1875 C-24.93043247 9.93262311 -33.39487581 13.28986461 -40.2109375 18.78125 C-40.80132812 19.1834375 -41.39171875 19.585625 -42 20 C-45 19 -45 19 -46.1875 16.9375 C-46.5896875 15.9784375 -46.5896875 15.9784375 -47 15 C-45.34284104 13.98432193 -43.67266041 12.98994188 -42 12 C-41.37996094 11.62488281 -40.75992188 11.24976563 -40.12109375 10.86328125 C-27.54645983 3.5222887 -14.56899894 -0.4776721 0 0 Z " fill="#2F3030" transform="translate(150,134)"/>
<path d="M0 0 C2.64 0 5.28 0 8 0 C9.125 5.75 9.125 5.75 8 8 C7.84777027 9.66565749 7.75082785 11.33656496 7.68359375 13.0078125 C7.64169922 13.99394531 7.59980469 14.98007813 7.55664062 15.99609375 C7.51732422 17.02863281 7.47800781 18.06117188 7.4375 19.125 C7.39431641 20.16527344 7.35113281 21.20554688 7.30664062 22.27734375 C7.2003712 24.85142528 7.09833417 27.42560508 7 30 C4.69 30 2.38 30 0 30 C0 20.1 0 10.2 0 0 Z " fill="#1183CB" transform="translate(100,176)"/>
<path d="M0 0 C2.64 0 5.28 0 8 0 C8.02886751 4.14581887 8.04675327 8.29161216 8.0625 12.4375 C8.07087891 13.62150391 8.07925781 14.80550781 8.08789062 16.02539062 C8.09111328 17.15009766 8.09433594 18.27480469 8.09765625 19.43359375 C8.10289307 20.47572021 8.10812988 21.51784668 8.11352539 22.59155273 C8 25 8 25 7 26 C4.69 26 2.38 26 0 26 C0 17.42 0 8.84 0 0 Z " fill="#5999C0" transform="translate(205,210)"/>
<path d="M0 0 C0.99 0 1.98 0 3 0 C3 21.45 3 42.9 3 65 C2.01 65 1.02 65 0 65 C0 43.55 0 22.1 0 0 Z " fill="#F7F7F7" transform="translate(53,150)"/>
<path d="M0 0 C1.0725 0.268125 2.145 0.53625 3.25 0.8125 C3.25 1.1425 3.25 1.4725 3.25 1.8125 C5.56 2.1425 7.87 2.4725 10.25 2.8125 C11.53571429 10.24107143 11.53571429 10.24107143 10.25 13.8125 C12.23 13.8125 14.21 13.8125 16.25 13.8125 C16.25 14.1425 16.25 14.4725 16.25 14.8125 C13.25 14.8125 10.25 14.8125 7.25 14.8125 C6.0125 15.06 4.775 15.3075 3.5 15.5625 C0.09028883 15.98483217 -0.84762078 15.76990184 -4.1875 14.3125 C-6.75 11.8125 -6.75 11.8125 -7.875 8.375 C-7.75 4.8125 -7.75 4.8125 -6.25 1.8125 C-3.75 -0.1875 -3.75 -0.1875 0 0 Z M1.25 3.8125 C0.92 5.4625 0.59 7.1125 0.25 8.8125 C2.54294488 9.67224801 2.54294488 9.67224801 5.25 9.8125 C7.62580018 8.10368236 7.62580018 8.10368236 9.25 5.8125 C9.25 5.1525 9.25 4.4925 9.25 3.8125 C6.61 3.8125 3.97 3.8125 1.25 3.8125 Z " fill="#343635" transform="translate(259.75,174.1875)"/>
<path d="M0 0 C11.55 0 23.1 0 35 0 C35 1.32 35 2.64 35 4 C35.66 4.33 36.32 4.66 37 5 C22.15 5 7.3 5 -8 5 C-8 4.67 -8 4.34 -8 4 C-4.37 4 -0.74 4 3 4 C3 3.34 3 2.68 3 2 C2.01 1.34 1.02 0.68 0 0 Z " fill="#191B1A" transform="translate(120,230)"/>
<path d="M0 0 C0.33 0 0.66 0 1 0 C1 25.41 1 50.82 1 77 C2.98 77 4.96 77 7 77 C7 77.33 7 77.66 7 78 C4.69 78 2.38 78 0 78 C-0.33 78.99 -0.66 79.98 -1 81 C-1.66 81 -2.32 81 -3 81 C-2.67 57.57 -2.34 34.14 -2 10 C-1.67 10 -1.34 10 -1 10 C-0.67 6.7 -0.34 3.4 0 0 Z " fill="#4A4C4B" transform="translate(61,140)"/>
<path d="M0 0 C3.5 0.125 3.5 0.125 4.5 1.125 C4.60091475 3.70689446 4.63971499 6.261465 4.6328125 8.84375 C4.63376923 9.61682495 4.63472595 10.3898999 4.63571167 11.18640137 C4.63639341 12.82397544 4.63453957 14.46155219 4.63037109 16.09912109 C4.62502271 18.61431921 4.63031626 21.12933873 4.63671875 23.64453125 C4.63605797 25.23177123 4.6347768 26.8190111 4.6328125 28.40625 C4.63483673 29.16353394 4.63686096 29.92081787 4.63894653 30.7010498 C4.61495132 36.01004868 4.61495132 36.01004868 3.5 37.125 C0 37.25 0 37.25 -3.5 37.125 C-5.26072584 35.36427416 -4.62834784 33.0460371 -4.63894653 30.7010498 C-4.6369223 29.94376587 -4.63489807 29.18648193 -4.6328125 28.40625 C-4.63376923 27.63317505 -4.63472595 26.8601001 -4.63571167 26.06359863 C-4.63639341 24.42602456 -4.63453957 22.78844781 -4.63037109 21.15087891 C-4.62502271 18.63568079 -4.63031626 16.12066127 -4.63671875 13.60546875 C-4.63605797 12.01822877 -4.6347768 10.4309889 -4.6328125 8.84375 C-4.63483673 8.08646606 -4.63686096 7.32918213 -4.63894653 6.5489502 C-4.61009123 0.16464612 -4.61009123 0.16464612 0 0 Z M-2.5 2.125 C-2.5 13.015 -2.5 23.905 -2.5 35.125 C-0.85 35.125 0.8 35.125 2.5 35.125 C2.5 24.235 2.5 13.345 2.5 2.125 C0.85 2.125 -0.8 2.125 -2.5 2.125 Z " fill="#81BBD6" transform="translate(324.5,198.875)"/>
<path d="M0 0 C2.31 0 4.62 0 7 0 C7 9.57 7 19.14 7 29 C6.34 29 5.68 29 5 29 C5 20.09 5 11.18 5 2 C3.68 2 2.36 2 1 2 C1 12.56 1 23.12 1 34 C6.61 34 12.22 34 18 34 C18 33.01 18 32.02 18 31 C14.04 31 10.08 31 6 31 C6 30.67 6 30.34 6 30 C10.62 30 15.24 30 20 30 C20 31.98 20 33.96 20 36 C13.4 36 6.8 36 0 36 C0 24.12 0 12.24 0 0 Z " fill="#277BAE" transform="translate(182,199)"/>
<path d="M0 0 C3.46206788 1.7204141 5.50744595 4.10444718 7.375 7.5 C8.02563876 10.10255504 8.15267661 12.32815927 8 15 C6.68647977 14.69181644 5.37420428 14.37832335 4.0625 14.0625 C3.33160156 13.88847656 2.60070312 13.71445313 1.84765625 13.53515625 C0 13 0 13 -1 12 C-2.68183948 11.76712992 -4.3712416 11.58735834 -6.0625 11.4375 C-6.98160156 11.35371094 -7.90070313 11.26992187 -8.84765625 11.18359375 C-9.55792969 11.12300781 -10.26820313 11.06242188 -11 11 C-10.67 10.34 -10.34 9.68 -10 9 C-7.03 9 -4.06 9 -1 9 C-1.33 8.34 -1.66 7.68 -2 7 C-5.02934491 6.34227572 -5.02934491 6.34227572 -8 6 C-7.67 4.68 -7.34 3.36 -7 2 C-8.98 2.33 -10.96 2.66 -13 3 C-13.103125 3.639375 -13.20625 4.27875 -13.3125 4.9375 C-13.539375 5.618125 -13.76625 6.29875 -14 7 C-14.99 7.33 -15.98 7.66 -17 8 C-16.11593727 5.02633445 -15.31696033 3.2872453 -13 1.1875 C-8.61465345 -0.54836634 -4.64867959 -0.79585395 0 0 Z " fill="#434444" transform="translate(230,162)"/>
<path d="M0 0 C9 0 9 0 12 1 C11.360625 1.268125 10.72125 1.53625 10.0625 1.8125 C7.66868314 2.88667752 7.66868314 2.88667752 7 6 C6.85507877 7.40664926 6.75371069 8.8181133 6.68359375 10.23046875 C6.64169922 11.03291016 6.59980469 11.83535156 6.55664062 12.66210938 C6.49766602 13.91217773 6.49766602 13.91217773 6.4375 15.1875 C6.39431641 16.03248047 6.35113281 16.87746094 6.30664062 17.74804688 C6.20068482 19.83184433 6.0998498 21.91590103 6 24 C4.02 24 2.04 24 0 24 C0 16.08 0 8.16 0 0 Z " fill="#157CB6" transform="translate(333,211)"/>
<path d="M0 0 C2.50239326 1.42923252 3.98729128 2.88135925 6 5 C5.67 6.65 5.34 8.3 5 10 C3.68 10 2.36 10 1 10 C1 9.34 1 8.68 1 8 C0.01 8 -0.98 8 -2 8 C-2 7.34 -2 6.68 -2 6 C-6.33229715 6.8604139 -6.33229715 6.8604139 -10 9 C-12.33297433 9.04092937 -14.66705225 9.04241723 -17 9 C-16.80037128 5.40668306 -16.21261372 4.20171045 -13.5625 1.6875 C-8.91274866 -0.51501379 -5.06162202 -0.99102955 0 0 Z " fill="#2B2B2B" transform="translate(310,162)"/>
<path d="M0 0 C0 2.64 0 5.28 0 8 C-7.06888778 8.85214779 -14.0088832 9.12746455 -21.125 9.0625 C-22.55972656 9.05573242 -22.55972656 9.05573242 -24.0234375 9.04882812 C-26.34902758 9.03720017 -28.6744776 9.02086102 -31 9 C-30 7 -30 7 -27.4453125 5.96484375 C-21.02176216 3.9773217 -15.07235229 2.5366634 -8.33984375 2.2734375 C-5.24445868 1.91170636 -3.06114886 0 0 0 Z " fill="#F3F4F3" transform="translate(153,220)"/>
<path d="M0 0 C0 0.33 0 0.66 0 1 C-1.98 1 -3.96 1 -6 1 C-5.67 2.32 -5.34 3.64 -5 5 C-3.02 5 -1.04 5 1 5 C1 5.33 1 5.66 1 6 C0.03513672 6.03867188 0.03513672 6.03867188 -0.94921875 6.078125 C-7.73553738 6.50408509 -13.58466809 8.01745001 -20.02734375 10.14453125 C-23.58080895 11.16714476 -26.34487344 11.34001177 -30 11 C-29.875 9.1640625 -29.875 9.1640625 -29 7 C-20.20025301 2.25966011 -9.98688725 -0.42497393 0 0 Z " fill="#393A39" transform="translate(146,217)"/>
<path d="M0 0 C2.03120707 3.04681061 2.24659875 3.60118324 2.1953125 7.01171875 C2.18886719 7.76904297 2.18242187 8.52636719 2.17578125 9.30664062 C2.15902344 10.09232422 2.14226562 10.87800781 2.125 11.6875 C2.11597656 12.48478516 2.10695313 13.28207031 2.09765625 14.10351562 C2.07411585 16.069139 2.03824547 18.03460775 2 20 C0.02 20 -1.96 20 -4 20 C-4.33 19.01 -4.66 18.02 -5 17 C-4.67 16.34 -4.34 15.68 -4 15 C-3.960008 13.00039988 -3.95653201 10.99952758 -4 9 C-4.62648438 9.03480469 -5.25296875 9.06960937 -5.8984375 9.10546875 C-6.71570313 9.13253906 -7.53296875 9.15960938 -8.375 9.1875 C-9.18710937 9.22230469 -9.99921875 9.25710937 -10.8359375 9.29296875 C-11.55007813 9.19628906 -12.26421875 9.09960938 -13 9 C-13.66 8.01 -14.32 7.02 -15 6 C-14.22914063 5.97421875 -13.45828125 5.9484375 -12.6640625 5.921875 C-11.66117187 5.86515625 -10.65828125 5.8084375 -9.625 5.75 C-8.62726563 5.70359375 -7.62953125 5.6571875 -6.6015625 5.609375 C-3.8473523 5.27839115 -3.8473523 5.27839115 -2.6484375 2.953125 C-2.43445313 2.30859375 -2.22046875 1.6640625 -2 1 C-1.34 1.33 -0.68 1.66 0 2 C0 1.34 0 0.68 0 0 Z " fill="#1D1E1E" transform="translate(274,168)"/>
<path d="M0 0 C0.33 0 0.66 0 1 0 C1 11.55 1 23.1 1 35 C1.66 35 2.32 35 3 35 C3 23.45 3 11.9 3 0 C3.33 0 3.66 0 4 0 C4 16.83 4 33.66 4 51 C2.35 50.67 0.7 50.34 -1 50 C-0.67 33.5 -0.34 17 0 0 Z " fill="#242525" transform="translate(156,184)"/>
<path d="M0 0 C2.31 0 4.62 0 7 0 C6.67 0.66 6.34 1.32 6 2 C5.91599471 3.59447464 5.89272533 5.19240545 5.90234375 6.7890625 C5.90556641 7.73007813 5.90878906 8.67109375 5.91210938 9.640625 C5.92048828 10.62546875 5.92886719 11.6103125 5.9375 12.625 C5.94201172 13.61757812 5.94652344 14.61015625 5.95117188 15.6328125 C5.96297855 18.0886016 5.979446 20.54427104 6 23 C4.02 23 2.04 23 0 23 C0 15.41 0 7.82 0 0 Z " fill="#1980C2" transform="translate(217,211)"/>
<path d="M0 0 C2.3014515 1.12159345 3.98152129 2.38521703 6 4 C5.34 4.66 4.68 5.32 4 6 C4 5.34 4 4.68 4 4 C0.40735548 2.80245183 -2.22717474 2.66905042 -6 3 C-8.44098818 4.85420839 -8.44098818 4.85420839 -10 7 C-8.35 7 -6.7 7 -5 7 C-5 7.33 -5 7.66 -5 8 C-5.969375 8.28875 -6.93875 8.5775 -7.9375 8.875 C-11.10664203 9.64214682 -11.10664203 9.64214682 -12 12 C-12.15123831 13.5195764 -12.24881693 15.04472502 -12.31640625 16.5703125 C-12.35830078 17.46621094 -12.40019531 18.36210937 -12.44335938 19.28515625 C-12.48267578 20.22230469 -12.52199219 21.15945312 -12.5625 22.125 C-12.60568359 23.06988281 -12.64886719 24.01476562 -12.69335938 24.98828125 C-12.7995894 27.32534172 -12.90031271 29.6626513 -13 32 C-15.97 32 -18.94 32 -22 32 C-22 21.77 -22 11.54 -22 1 C-21.67 1 -21.34 1 -21 1 C-21 10.9 -21 20.8 -21 31 C-18.69 31 -16.38 31 -14 31 C-14.01047363 30.36497559 -14.02094727 29.72995117 -14.03173828 29.07568359 C-14.07352467 26.1754966 -14.09939771 23.27537318 -14.125 20.375 C-14.14175781 19.37597656 -14.15851563 18.37695312 -14.17578125 17.34765625 C-14.25357843 5.6002828 -14.25357843 5.6002828 -10.375 1.125 C-6.92004446 -0.51155789 -3.70483929 -0.67425236 0 0 Z " fill="#1E77AC" transform="translate(121,175)"/>
<path d="M0 0 C3.875 0.875 3.875 0.875 5 2 C5.08669432 3.4887186 5.10703494 4.981445 5.09765625 6.47265625 C5.09443359 7.37177734 5.09121094 8.27089844 5.08789062 9.19726562 C5.07951172 10.14279297 5.07113281 11.08832031 5.0625 12.0625 C5.05798828 13.01189453 5.05347656 13.96128906 5.04882812 14.93945312 C5.0370011 17.29303065 5.02052025 19.64648477 5 22 C3.02 22 1.04 22 -1 22 C-1 16.39 -1 10.78 -1 5 C-0.34 5 0.32 5 1 5 C0.67 3.35 0.34 1.7 0 0 Z " fill="#157CB8" transform="translate(234,213)"/>
<path d="M0 0 C2 2 2 2 2.3125 4.9375 C2 8 2 8 0.875 9.875 C-1.91106042 11.54663625 -3.81988862 11.46376624 -7 11 C-9.34117508 8.89294243 -9.90930872 7.53119178 -10.4375 4.4375 C-10 2 -10 2 -8.375 0.125 C-5.18137449 -1.38776998 -3.35297515 -0.94757993 0 0 Z " fill="#2280BC" transform="translate(92,161)"/>
<path d="M0 0 C2.64 0 5.28 0 8 0 C8 0.66 8 1.32 8 2 C8.66 2 9.32 2 10 2 C9.43628586 5.26954202 8.50037734 6.82575883 6 9 C6.66 9 7.32 9 8 9 C8 9.66 8 10.32 8 11 C9.98 11 11.96 11 14 11 C14 11.33 14 11.66 14 12 C11 12 8 12 5 12 C3.72125 12.226875 2.4425 12.45375 1.125 12.6875 C-1.96001958 13.10257536 -2.70097782 13.17193775 -5.5 11.5625 C-5.995 11.046875 -6.49 10.53125 -7 10 C-6.34 8.35 -5.68 6.7 -5 5 C-4.34 5 -3.68 5 -3 5 C-2.67 4.01 -2.34 3.02 -2 2 C-1.67 2.99 -1.34 3.98 -1 5 C0.8522367 6.00478037 0.8522367 6.00478037 3 6 C4.9581636 4.47698387 5.89113011 3.21773977 7 1 C4.69 1 2.38 1 0 1 C0 0.67 0 0.34 0 0 Z " fill="#3D3D3F" transform="translate(302,177)"/>
<path d="M0 0 C2.64 0 5.28 0 8 0 C7.27087654 1.00126167 7.27087654 1.00126167 6.52702332 2.02275085 C4.67483999 5.63396699 4.55952712 8.67363495 4.56762695 12.63598633 C4.5574353 13.38774139 4.54724365 14.13949646 4.53674316 14.91403198 C4.50666643 17.38677474 4.4973556 19.85912977 4.48828125 22.33203125 C4.47143058 24.05125714 4.45327981 25.77047074 4.43388367 27.4896698 C4.38641958 32.00560668 4.35658705 36.52149372 4.33044434 41.03759766 C4.30062066 45.64951418 4.25409654 50.26125904 4.20898438 54.87304688 C4.12299215 63.91527472 4.05562873 72.95753794 4 82 C3.67 82 3.34 82 3 82 C2.67 57.91 2.34 33.82 2 9 C1.01 9.495 1.01 9.495 0 10 C0 6.7 0 3.4 0 0 Z " fill="#0C0E0D" transform="translate(57,135)"/>
<path d="M0 0 C1.134375 0.020625 2.26875 0.04125 3.4375 0.0625 C3.16092508 3.38139905 2.65383092 4.82650263 0.375 7.3125 C-3.5248924 9.63584015 -6.01894827 9.91826026 -10.5625 10.0625 C-13.0625 9.125 -13.0625 9.125 -14.5625 8.0625 C-13.5625 5.0625 -13.5625 5.0625 -10.5625 3.0625 C-8.5665278 2.38386945 -6.56681449 1.71608081 -4.5625 1.0625 C-3.5625 0.0625 -3.5625 0.0625 0 0 Z " fill="#3F403F" transform="translate(233.5625,179.9375)"/>
<path d="M0 0 C0 0.99 0 1.98 0 3 C0.33 3.99 0.66 4.98 1 6 C1.0685495 7.89470816 1.08480372 9.7916834 1.0625 11.6875 C1.05347656 12.68136719 1.04445313 13.67523438 1.03515625 14.69921875 C1.02355469 15.45847656 1.01195312 16.21773437 1 17 C1.99 17.33 2.98 17.66 4 18 C4.33 16.02 4.66 14.04 5 12 C5.66 12.66 6.32 13.32 7 14 C9.32275177 14.40047444 11.65739357 14.7397104 14 15 C14.33 12.36 14.66 9.72 15 7 C15.33 7 15.66 7 16 7 C16.33 9.64 16.66 12.28 17 15 C14.44931155 17.35448165 13.28982642 17.98327924 9.75 18.1875 C8.38875 18.0946875 8.38875 18.0946875 7 18 C6.67 18.66 6.34 19.32 6 20 C6.66 20.33 7.32 20.66 8 21 C5.25 21.75 5.25 21.75 2 22 C-0.88642473 19.81567858 -1.85101198 18.44696406 -3 15 C-3.25679842 9.77843208 -3.03343131 5.90415786 -1 1 C-0.67 0.67 -0.34 0.34 0 0 Z " fill="#53A0CB" transform="translate(294,213)"/>
<path d="M0 0 C0 0.33 0 0.66 0 1 C-2.31 1.33 -4.62 1.66 -7 2 C-6.34 2.33 -5.68 2.66 -5 3 C-5 3.66 -5 4.32 -5 5 C-8.91290237 6.75380558 -12.5742335 7.52564918 -16.8125 8.125 C-17.97394531 8.29257813 -19.13539063 8.46015625 -20.33203125 8.6328125 C-21.65267578 8.81457031 -21.65267578 8.81457031 -23 9 C-23.12375 8.360625 -23.2475 7.72125 -23.375 7.0625 C-23.684375 6.0415625 -23.684375 6.0415625 -24 5 C-24.66 4.67 -25.32 4.34 -26 4 C-17.13324662 1.49143454 -9.23121871 -0.18462437 0 0 Z " fill="#383838" transform="translate(150,134)"/>
<path d="M0 0 C6.50877193 1.47368421 6.50877193 1.47368421 8.75 3.875 C9.36875 4.926875 9.36875 4.926875 10 6 C10.556875 6.70125 11.11375 7.4025 11.6875 8.125 C13 10 13 10 13 12 C9.86777159 12.50115655 7.11209905 12.68820402 4 12 C1.44649143 9.64767696 -0.28881488 7.00631739 -2 4 C-1.34 2.68 -0.68 1.36 0 0 Z " fill="#4B92BB" transform="translate(255,224)"/>
<path d="M0 0 C2.475 0.99 2.475 0.99 5 2 C5 8.93 5 15.86 5 23 C6.98 23 8.96 23 11 23 C11 15.41 11 7.82 11 0 C11.66 0 12.32 0 13 0 C13 7.92 13 15.84 13 24 C9.7 24 6.4 24 3 24 C2.92652344 21.77830078 2.92652344 21.77830078 2.8515625 19.51171875 C2.77653157 17.5702935 2.70098388 15.62888818 2.625 13.6875 C2.57859375 12.22280273 2.57859375 12.22280273 2.53125 10.72851562 C2.49257812 9.79072266 2.45390625 8.85292969 2.4140625 7.88671875 C2.3826416 7.02264404 2.3512207 6.15856934 2.31884766 5.26831055 C2.12811963 2.72257555 2.12811963 2.72257555 0 0 Z " fill="#2D83B0" transform="translate(116,183)"/>
<path d="M0 0 C0.33 0.99 0.66 1.98 1 3 C2.65 3.33 4.3 3.66 6 4 C6.33 5.65 6.66 7.3 7 9 C7.66 9 8.32 9 9 9 C9 17.58 9 26.16 9 35 C8.34 35 7.68 35 7 35 C6.98541748 34.29915283 6.97083496 33.59830566 6.95581055 32.8762207 C6.88114513 29.68776991 6.78454525 26.50034487 6.6875 23.3125 C6.66494141 22.20970703 6.64238281 21.10691406 6.61914062 19.97070312 C6.58369141 18.90400391 6.54824219 17.83730469 6.51171875 16.73828125 C6.48553467 15.75899658 6.45935059 14.77971191 6.43237305 13.77075195 C5.83565591 9.94684299 4.39207501 7.08272501 1.3125 4.6875 C-3.13642404 3.36484691 -7.59194731 3.5306491 -12 5 C-11.25 3.0625 -11.25 3.0625 -10 1 C-6.79497337 -0.37358284 -3.44040362 -0.07819099 0 0 Z " fill="#E0FAFD" transform="translate(122,172)"/>
<path d="M0 0 C6.07384332 -0.20824606 11.40660432 0.49516356 17.3125 1.875 C18.10978516 2.04902344 18.90707031 2.22304687 19.72851562 2.40234375 C23.41931164 3.24045555 25.79183852 3.86122568 29 6 C26.36 6.33 23.72 6.66 21 7 C21 6.34 21 5.68 21 5 C17.70924004 5.37904208 17.70924004 5.37904208 15 7 C10.00016068 7.04132099 5.43487664 7.03444595 1.3125 4.0625 C0 2 0 2 0 0 Z " fill="#3D3D3D" transform="translate(58,134)"/>
<path d="M0 0 C1.875 0.1875 1.875 0.1875 4 1 C5.69863634 3.83106056 6.00625636 5.69969491 5.9375 9 C4.76990847 12.73629289 2.91658994 14.45733185 0 17 C-2.77982621 15.6100869 -2.87463341 13.81341647 -4 11 C-4.66 10.67 -5.32 10.34 -6 10 C-5.34 9.67 -4.68 9.34 -4 9 C-3.34444881 6.47266765 -3.34444881 6.47266765 -3 4 C-2.01 5.485 -2.01 5.485 -1 7 C-0.67 4.69 -0.34 2.38 0 0 Z " fill="#383A3B" transform="translate(204,171)"/>
<path d="M0 0 C-5.37765085 2.98758381 -8.8314695 3.23176052 -14.796875 1.546875 C-18.47940979 0.63277062 -22.22713135 0.33187271 -26 0 C-24.68 -0.33 -23.36 -0.66 -22 -1 C-22 -1.66 -22 -2.32 -22 -3 C-15.2731142 -7.11944612 -6.70432255 -2.73139067 0 0 Z " fill="#2A2A2A" transform="translate(88,223)"/>
<path d="M0 0 C2.19050021 0.09017996 4.378466 0.24666208 6.5625 0.4375 C7.76003906 0.53933594 8.95757812 0.64117187 10.19140625 0.74609375 C11.11824219 0.82988281 12.04507813 0.91367188 13 1 C13.33 1.99 13.66 2.98 14 4 C13.01 4.495 13.01 4.495 12 5 C12 4.01 12 3.02 12 2 C9.03 2 6.06 2 3 2 C3 12.23 3 22.46 3 33 C2.01 33.495 2.01 33.495 1 34 C0.97494385 33.3201001 0.9498877 32.6402002 0.92407227 31.93969727 C0.80694178 28.81382721 0.68475344 25.68817372 0.5625 22.5625 C0.52318359 21.49322266 0.48386719 20.42394531 0.44335938 19.32226562 C0.2494455 14.44458581 0.00058077 9.62373577 -0.59765625 4.77734375 C-0.73042969 3.53082031 -0.86320312 2.28429687 -1 1 C-0.67 0.67 -0.34 0.34 0 0 Z " fill="#C6E8F6" transform="translate(96,174)"/>
<path d="M0 0 C1.32 0 2.64 0 4 0 C4 7.26 4 14.52 4 22 C2.68 22 1.36 22 0 22 C0 14.74 0 7.48 0 0 Z " fill="#1181C9" transform="translate(207,212)"/>
<path d="M0 0 C2.97 0.33 5.94 0.66 9 1 C7.02 1.99 7.02 1.99 5 3 C2.89172945 6.16240582 2.66182535 7.50657469 2.375 11.1875 C2.30023438 12.08855469 2.22546875 12.98960937 2.1484375 13.91796875 C2.09945313 14.60503906 2.05046875 15.29210937 2 16 C0.68 16 -0.64 16 -2 16 C-3 15 -3 15 -3.1328125 12.56640625 C-3.13023437 11.57511719 -3.12765625 10.58382812 -3.125 9.5625 C-3.12757813 8.57378906 -3.13015625 7.58507812 -3.1328125 6.56640625 C-3 4 -3 4 -2 2 C-1.34 2 -0.68 2 0 2 C0 1.34 0 0.68 0 0 Z " fill="#167EC5" transform="translate(297,215)"/>
<path d="M0 0 C1.670625 0.061875 1.670625 0.061875 3.375 0.125 C1.395 1.115 1.395 1.115 -0.625 2.125 C1.025 2.455 2.675 2.785 4.375 3.125 C2.375 4.125 0.375 5.125 -1.625 6.125 C-1.625 8.435 -1.625 10.745 -1.625 13.125 C-2.615 13.125 -3.605 13.125 -4.625 13.125 C-4.625 14.775 -4.625 16.425 -4.625 18.125 C-5.285 18.455 -5.945 18.785 -6.625 19.125 C-7.95757403 9.71497722 -7.95757403 9.71497722 -6.625 5.125 C-5.965 5.125 -5.305 5.125 -4.625 5.125 C-4.955 4.135 -5.285 3.145 -5.625 2.125 C-3.625 0.125 -3.625 0.125 0 0 Z " fill="#1280C2" transform="translate(275.625,210.875)"/>
<path d="M0 0 C1.0725 0.268125 2.145 0.53625 3.25 0.8125 C2.26 3.4525 1.27 6.0925 0.25 8.8125 C-0.74 8.8125 -1.73 8.8125 -2.75 8.8125 C-3.08 10.1325 -3.41 11.4525 -3.75 12.8125 C-4.74 12.4825 -5.73 12.1525 -6.75 11.8125 C-7.70523525 7.75275019 -8.14643275 5.6053655 -6.25 1.8125 C-3.75 -0.1875 -3.75 -0.1875 0 0 Z " fill="#343436" transform="translate(259.75,174.1875)"/>
<path d="M0 0 C0.66 0 1.32 0 2 0 C2.02888514 3.14581423 2.04675923 6.29159469 2.0625 9.4375 C2.07087891 10.33533203 2.07925781 11.23316406 2.08789062 12.15820312 C2.09111328 13.01220703 2.09433594 13.86621094 2.09765625 14.74609375 C2.10289307 15.53685303 2.10812988 16.3276123 2.11352539 17.14233398 C2 19 2 19 1 20 C-1.33297433 20.04092937 -3.66705225 20.04241723 -6 20 C-6.09087891 18.948125 -6.09087891 18.948125 -6.18359375 17.875 C-6.68197174 12.23182765 -7.25821676 6.61635883 -8 1 C-7.34 1 -6.68 1 -6 1 C-4.81318274 4.56045177 -4.90310168 7.43808337 -4.9375 11.1875 C-4.94652344 12.45980469 -4.95554687 13.73210937 -4.96484375 15.04296875 C-4.97644531 16.01878906 -4.98804688 16.99460938 -5 18 C-3.35 18 -1.7 18 0 18 C0 12.06 0 6.12 0 0 Z " fill="#75B0CD" transform="translate(354,216)"/>
<path d="M0 0 C3.15473719 0.35052635 4.8233534 0.86519076 7.375 2.8125 C9 5 9 5 8.75 7.25 C8.5025 7.8275 8.255 8.405 8 9 C6.68 9 5.36 9 4 9 C3.51917969 9.49113281 3.03835938 9.98226562 2.54296875 10.48828125 C1 12 1 12 -1.26171875 12.29296875 C-2.06222656 12.25816406 -2.86273438 12.22335938 -3.6875 12.1875 C-4.89986328 12.14689453 -4.89986328 12.14689453 -6.13671875 12.10546875 C-6.75160156 12.07066406 -7.36648438 12.03585938 -8 12 C-8 11.67 -8 11.34 -8 11 C-5.03 10.34 -2.06 9.68 1 9 C0.67 8.34 0.34 7.68 0 7 C-3.62885324 6.84850702 -3.62885324 6.84850702 -7 8 C-6.67 6.68 -6.34 5.36 -6 4 C-3.36 4 -0.72 4 2 4 C2 3.01 2 2.02 2 1 C1.34 0.67 0.68 0.34 0 0 Z " fill="#4B4C4C" transform="translate(267,162)"/>
<path d="M0 0 C1.0625 1.6875 1.0625 1.6875 0.75 3.875 C0.4096875 4.7721875 0.4096875 4.7721875 0.0625 5.6875 C-0.5975 5.6875 -1.2575 5.6875 -1.9375 5.6875 C-1.9375 6.6775 -1.9375 7.6675 -1.9375 8.6875 C-5.2375 8.6875 -8.5375 8.6875 -11.9375 8.6875 C-11.6075 7.3675 -11.2775 6.0475 -10.9375 4.6875 C-10.6075 5.3475 -10.2775 6.0075 -9.9375 6.6875 C-6.90815509 7.34522428 -6.90815509 7.34522428 -3.9375 7.6875 C-4.74785868 5.5310566 -4.74785868 5.5310566 -6.8125 4.875 C-9.57876132 3.32914808 -10.48405436 1.44904672 -11.9375 -1.3125 C-7.72335931 -2.77124101 -3.73793818 -2.53215167 0 0 Z " fill="#60AED6" transform="translate(284.9375,211.3125)"/>
<path d="M0 0 C0.90105469 0.01804688 1.80210937 0.03609375 2.73046875 0.0546875 C3.41753906 0.07789063 4.10460937 0.10109375 4.8125 0.125 C5.4725 1.445 6.1325 2.765 6.8125 4.125 C5.8225 5.61 5.8225 5.61 4.8125 7.125 C3.81669922 6.87363281 3.81669922 6.87363281 2.80078125 6.6171875 C-3.86123643 4.94553352 -3.86123643 4.94553352 -10.1875 7.125 C-8.21737025 1.36615921 -6.0592548 -0.15738324 0 0 Z " fill="#137FBF" transform="translate(303.1875,210.875)"/>
<path d="M0 0 C3.0625 0.1875 3.0625 0.1875 5.0625 2.1875 C5.3125 4.6875 5.3125 4.6875 5.0625 7.1875 C3.0625 9.1875 3.0625 9.1875 0.625 9.5 C-1.9375 9.1875 -1.9375 9.1875 -3.8125 8 C-4.9375 6.1875 -4.9375 6.1875 -4.6875 3.5625 C-3.63578571 0.23207143 -3.63578571 0.23207143 0 0 Z " fill="#3F8DBD" transform="translate(208.9375,198.8125)"/>
<path d="M0 0 C2.97 0 5.94 0 9 0 C9 3.3 9 6.6 9 10 C8.34 10 7.68 10 7 10 C6.34 12.97 5.68 15.94 5 19 C4.67 19 4.34 19 4 19 C4 14.38 4 9.76 4 5 C2.68 4.67 1.36 4.34 0 4 C0.99 4 1.98 4 3 4 C3 3.34 3 2.68 3 2 C2.01 1.67 1.02 1.34 0 1 C0 0.67 0 0.34 0 0 Z " fill="#1A1A1A" transform="translate(142,135)"/>
<path d="M0 0 C0 1.32 0 2.64 0 4 C-5.36000789 6.25684543 -9.1977825 7.36263859 -15 7 C-14.9375 5.1875 -14.9375 5.1875 -14 3 C-9.14886197 0.2833627 -5.63000273 -0.34469404 0 0 Z " fill="#242625" transform="translate(131,221)"/>
<path d="M0 0 C0.99 0 1.98 0 3 0 C3.02698422 2.43757413 3.04683099 4.87484915 3.0625 7.3125 C3.07087891 8.00279297 3.07925781 8.69308594 3.08789062 9.40429688 C3.10307906 12.5483025 3.00193327 14.99420019 2 18 C0.35 18.33 -1.3 18.66 -3 19 C-3.66 18.01 -4.32 17.02 -5 16 C-4.34 16 -3.68 16 -3 16 C-1.35199144 12.33552568 -0.66419027 9.18796534 -0.375 5.1875 C-0.26285156 3.72376953 -0.26285156 3.72376953 -0.1484375 2.23046875 C-0.09945313 1.49441406 -0.05046875 0.75835937 0 0 Z " fill="#1383CC" transform="translate(311,201)"/>
<path d="M0 0 C0.66 0.33 1.32 0.66 2 1 C1.67 2.32 1.34 3.64 1 5 C0.34 5 -0.32 5 -1 5 C-1 10.61 -1 16.22 -1 22 C-1.99 21.67 -2.98 21.34 -4 21 C-5.43622144 15.25511425 -5.86082894 10.11294375 -3.625 4.625 C-2 2 -2 2 0 0 Z " fill="#5EA6CE" transform="translate(270,211)"/>
<path d="M0 0 C2.5 0.25 2.5 0.25 4.5 2.25 C4.17028521 5.54714793 3.8773161 6.8726839 1.5 9.25 C-3.05555556 8.69444444 -3.05555556 8.69444444 -4.5 7.25 C-4.6875 4.8125 -4.6875 4.8125 -4.5 2.25 C-2.5 0.25 -2.5 0.25 0 0 Z " fill="#353535" transform="translate(285.5,150.75)"/>
<path d="M0 0 C2.375 2.0625 2.375 2.0625 4 4 C3 6 3 6 1 7 C0.67 6.01 0.34 5.02 0 4 C-1.65 3.67 -3.3 3.34 -5 3 C-5 4.32 -5 5.64 -5 7 C-6.175625 7.185625 -6.175625 7.185625 -7.375 7.375 C-10.14057822 7.79117993 -10.14057822 7.79117993 -12 10 C-11.6875 7.125 -11.6875 7.125 -11 4 C-10.01 3.34 -9.02 2.68 -8 2 C-8.33 1.34 -8.66 0.68 -9 0 C-5.41563853 -1.19478716 -3.63093708 -0.96330984 0 0 Z " fill="#3890C6" transform="translate(351,210)"/>
<path d="M0 0 C1.4540625 0.0309375 1.4540625 0.0309375 2.9375 0.0625 C2.9375 2.7025 2.9375 5.3425 2.9375 8.0625 C0.2975 8.0625 -2.3425 8.0625 -5.0625 8.0625 C-5.3925 7.4025 -5.7225 6.7425 -6.0625 6.0625 C-4.02039474 0.08204887 -4.02039474 0.08204887 0 0 Z " fill="#3F3F3F" transform="translate(334.0625,161.9375)"/>
<path d="M0 0 C2.46800047 1.15173355 4.04783565 2.04783565 6 4 C6.265625 5.875 6.265625 5.875 6.25 8 C6.25515625 8.70125 6.2603125 9.4025 6.265625 10.125 C6 12 6 12 4 14 C3.67 12.35 3.34 10.7 3 9 C3.66 9 4.32 9 5 9 C4.67 8.34 4.34 7.68 4 7 C2.05000871 7.19471111 2.05000871 7.19471111 0 8 C-1.28436734 9.9837767 -1.28436734 9.9837767 -2 12 C-2.103125 11.21625 -2.20625 10.4325 -2.3125 9.625 C-2.77595022 6.66954819 -2.77595022 6.66954819 -6 5 C-4.02 4.34 -2.04 3.68 0 3 C0 2.01 0 1.02 0 0 Z " fill="#3C3E3E" transform="translate(202,153)"/>
<path d="M0 0 C-1.45812808 5.4679803 -1.45812808 5.4679803 -3.71875 7.6875 C-6.58835664 9.33850656 -8.46349589 9.30487515 -11.75 9.1875 C-12.73484375 9.16042969 -13.7196875 9.13335937 -14.734375 9.10546875 C-15.48203125 9.07066406 -16.2296875 9.03585938 -17 9 C-17 8.67 -17 8.34 -17 8 C-13.535 7.505 -13.535 7.505 -10 7 C-10 6.67 -10 6.34 -10 6 C-8.02 6 -6.04 6 -4 6 C-4 4.35 -4 2.7 -4 1 C-4.70125 1.33 -5.4025 1.66 -6.125 2 C-9.26003116 3.09044562 -11.70563182 3.15322643 -15 3 C-15.33 2.34 -15.66 1.68 -16 1 C-15.05125 1.020625 -14.1025 1.04125 -13.125 1.0625 C-8.6234741 0.97246948 -4.73582033 -0.0763842 0 0 Z " fill="#7AB5D4" transform="translate(290,227)"/>
<path d="M0 0 C1.21816406 0.03480469 1.21816406 0.03480469 2.4609375 0.0703125 C3.68683594 0.09738281 3.68683594 0.09738281 4.9375 0.125 C5.87722656 0.15980469 5.87722656 0.15980469 6.8359375 0.1953125 C5.4422093 4.62990223 3.23011515 7.06909624 -0.1640625 10.1953125 C0.4959375 7.8853125 1.1559375 5.5753125 1.8359375 3.1953125 C-0.8040625 4.1853125 -3.4440625 5.1753125 -6.1640625 6.1953125 C-3.41682632 0.30837783 -3.41682632 0.30837783 0 0 Z " fill="#6BAFD3" transform="translate(260.1640625,209.8046875)"/>
<path d="M0 0 C2.375 1.5625 2.375 1.5625 4 3 C3.67 3.66 3.34 4.32 3 5 C2.01 5 1.02 5 0 5 C0 5.99 0 6.98 0 8 C-0.66 8 -1.32 8 -2 8 C-2.33 6.35 -2.66 4.7 -3 3 C-5.31 3 -7.62 3 -10 3 C-9.67 2.01 -9.34 1.02 -9 0 C-5.43564899 -1.188117 -3.62175183 -0.88695963 0 0 Z " fill="#3895CB" transform="translate(235,210)"/>
<path d="M0 0 C0.66 1.32 1.32 2.64 2 4 C0.0373772 6.04795423 -1.4277307 6.94976638 -4.26953125 7.19921875 C-6.51954383 7.18858877 -8.75385562 7.12958525 -11 7 C-11 6.34 -11 5.68 -11 5 C-10.34 4.67 -9.68 4.34 -9 4 C-8.67 3.01 -8.34 2.02 -8 1 C-7.05125 1.020625 -6.1025 1.04125 -5.125 1.0625 C-2.09333717 1.22551826 -2.09333717 1.22551826 0 0 Z " fill="#4493C1" transform="translate(309,229)"/>
<path d="M0 0 C0 0.66 0 1.32 0 2 C0.66 2 1.32 2 2 2 C2 2.66 2 3.32 2 4 C-6.57142857 5.42857143 -6.57142857 5.42857143 -10 3 C-9.67 2.01 -9.34 1.02 -9 0 C-5.93109813 -1.53445094 -3.29905734 -0.54984289 0 0 Z " fill="#373939" transform="translate(229,185)"/>
<path d="M0 0 C1.60379341 -0.05416188 3.20811406 -0.09286638 4.8125 -0.125 C5.70582031 -0.14820313 6.59914062 -0.17140625 7.51953125 -0.1953125 C10 0 10 0 13 2 C14.65549531 2.38499891 16.3222433 2.72793135 18 3 C18 3.33 18 3.66 18 4 C12.06 4 6.12 4 0 4 C0 2.68 0 1.36 0 0 Z " fill="#151515" transform="translate(219,173)"/>
<path d="M0 0 C2.64 0 5.28 0 8 0 C9.28571429 7.42857143 9.28571429 7.42857143 8 11 C9.98 11 11.96 11 14 11 C14 11.33 14 11.66 14 12 C6.57142857 12.14285714 6.57142857 12.14285714 3 11 C3.66 9.68 4.32 8.36 5 7 C4.34 6.67 3.68 6.34 3 6 C3.474375 5.54625 3.94875 5.0925 4.4375 4.625 C6.09027808 3.06741796 6.09027808 3.06741796 7 1 C4.69 1 2.38 1 0 1 C0 0.67 0 0.34 0 0 Z " fill="#676767" transform="translate(262,177)"/>
<path d="M0 0 C2.64 0 5.28 0 8 0 C8 0.66 8 1.32 8 2 C8.66 2 9.32 2 10 2 C9.43628586 5.26954202 8.50037734 6.82575883 6 9 C6.66 9 7.32 9 8 9 C8 9.66 8 10.32 8 11 C9.98 11 11.96 11 14 11 C14 11.33 14 11.66 14 12 C7.375 12.25 7.375 12.25 4 10 C3.125 8.0625 3.125 8.0625 3 6 C4.375 4.375 4.375 4.375 6 3 C6.33 2.34 6.66 1.68 7 1 C4.69 1 2.38 1 0 1 C0 0.67 0 0.34 0 0 Z " fill="#676769" transform="translate(302,177)"/>
<path d="M0 0 C0.33 0 0.66 0 1 0 C1 6.27 1 12.54 1 19 C-0.65 19 -2.3 19 -4 19 C-4.33 13.39 -4.66 7.78 -5 2 C-3.68 2.99 -2.36 3.98 -1 5 C-1.66 5 -2.32 5 -3 5 C-3 9.29 -3 13.58 -3 18 C-2.01 18 -1.02 18 0 18 C0 12.06 0 6.12 0 0 Z " fill="#1A7CBD" transform="translate(353,215)"/>
<path d="M0 0 C1.485 0.99 1.485 0.99 3 2 C6.83836402 2.25032809 10.26351589 1.87917273 14 1 C14 2.65 14 4.3 14 6 C4.19156581 5.38029501 4.19156581 5.38029501 0 2 C0 1.34 0 0.68 0 0 Z " fill="#1B7CB8" transform="translate(272,227)"/>
<path d="M0 0 C-0.33 1.65 -0.66 3.3 -1 5 C-1.33 4.34 -1.66 3.68 -2 3 C-2.99 3.495 -2.99 3.495 -4 4 C-4.65555119 6.52733235 -4.65555119 6.52733235 -5 9 C-5.33 8.01 -5.66 7.02 -6 6 C-7.32 6.33 -8.64 6.66 -10 7 C-8.84826645 4.53199953 -7.95216435 2.95216435 -6 1 C-3.90200436 0.34437636 -2.19959601 0 0 0 Z " fill="#137DBD" transform="translate(262,213)"/>
<path d="M0 0 C0.99 0.66 1.98 1.32 3 2 C3 2.66 3 3.32 3 4 C3.99 4.33 4.98 4.66 6 5 C5.01 6.485 5.01 6.485 4 8 C0.74456771 7.65120368 -0.01873107 6.97866739 -2.25 4.4375 C-3.11625 3.2309375 -3.11625 3.2309375 -4 2 C-3.01 2 -2.02 2 -1 2 C-0.67 1.34 -0.34 0.68 0 0 Z " fill="#212322" transform="translate(102,149)"/>
<path d="M0 0 C2.31 0 4.62 0 7 0 C7.16781295 2.60409745 7.33429651 5.2082682 7.5 7.8125 C7.54769531 8.55048828 7.59539062 9.28847656 7.64453125 10.04882812 C7.87636977 13.70856478 8 17.33401803 8 21 C7.34 21 6.68 21 6 21 C6 14.4 6 7.8 6 1 C4.02 1 2.04 1 0 1 C0 0.67 0 0.34 0 0 Z " fill="#77AFC9" transform="translate(244,199)"/>
<path d="M0 0 C2.64 0 5.28 0 8 0 C6.625 2.5 6.625 2.5 5 5 C4.34 5 3.68 5 3 5 C2.34 6.65 1.68 8.3 1 10 C0.67 10 0.34 10 0 10 C0 6.7 0 3.4 0 0 Z " fill="#181818" transform="translate(57,135)"/>
<path d="M0 0 C3.3 0 6.6 0 10 0 C10.66 1.32 11.32 2.64 12 4 C11.01 5.485 11.01 5.485 10 7 C7.69 6.34 5.38 5.68 3 5 C3.639375 4.71125 4.27875 4.4225 4.9375 4.125 C7.15206079 3.17176549 7.15206079 3.17176549 8 1 C5.36 1 2.72 1 0 1 C0 0.67 0 0.34 0 0 Z " fill="#1D7DB5" transform="translate(298,211)"/>
<path d="M0 0 C0.33 0 0.66 0 1 0 C1 2.64 1 5.28 1 8 C3.64 8 6.28 8 9 8 C9 8.33 9 8.66 9 9 C6.69 9 4.38 9 2 9 C1.67 9.99 1.34 10.98 1 12 C0.34 12 -0.32 12 -1 12 C-1.02687279 10.18757948 -1.04633715 8.37504767 -1.0625 6.5625 C-1.07410156 5.55316406 -1.08570313 4.54382813 -1.09765625 3.50390625 C-1 1 -1 1 0 0 Z " fill="#2F3130" transform="translate(59,209)"/>
<path d="M0 0 C0.33 0 0.66 0 1 0 C1 4.29 1 8.58 1 13 C-0.32 13.33 -1.64 13.66 -3 14 C-3.66 13.34 -4.32 12.68 -5 12 C-4.67 11.67 -4.34 11.34 -4 11 C-4.99 10.34 -5.98 9.68 -7 9 C-4.69 9 -2.38 9 0 9 C0 6.03 0 3.06 0 0 Z " fill="#525252" transform="translate(56,135)"/>
<path d="M0 0 C1.6792238 0.63437344 3.35008418 1.29289322 5 2 C5 2.33 5 2.66 5 3 C1.37 3 -2.26 3 -6 3 C-6.33 2.01 -6.66 1.02 -7 0 C-4.26965677 -1.36517162 -2.92769462 -0.74894513 0 0 Z " fill="#EFEFEF" transform="translate(81,226)"/>
<path d="M0 0 C0.99 0.66 1.98 1.32 3 2 C2.67 4.64 2.34 7.28 2 10 C0.35 10 -1.3 10 -3 10 C-2.01 6.7 -1.02 3.4 0 0 Z " fill="#2C8CC6" transform="translate(286,213)"/>
<path d="M0 0 C2 2 2 2 2 5 C1.01 5 0.02 5 -1 5 C-1 6.65 -1 8.3 -1 10 C-1.99 10.495 -1.99 10.495 -3 11 C-4.22080679 5.62845011 -4.22080679 5.62845011 -3.1875 2.6875 C-2 1 -2 1 0 0 Z " fill="#1085C9" transform="translate(272,219)"/>
<path d="M0 0 C-1.33333333 0.66666667 -2.66666667 1.33333333 -4 2 C-4.8971875 2.556875 -4.8971875 2.556875 -5.8125 3.125 C-8.89997177 4.35998871 -11.71225123 4.12645188 -15 4 C-13.68 3.67 -12.36 3.34 -11 3 C-11 2.34 -11 1.68 -11 1 C-7.2297564 -1.56376565 -4.32597804 -0.83191885 0 0 Z " fill="#333333" transform="translate(77,219)"/>
<path d="M0 0 C0 3 0 3 -2 5.1875 C-2.66 5.785625 -3.32 6.38375 -4 7 C-2.68 7.33 -1.36 7.66 0 8 C-2.31 8 -4.62 8 -7 8 C-6.65930765 4.84859577 -6.41923159 3.39218439 -4.0625 1.1875 C-2 0 -2 0 0 0 Z " fill="#464646" transform="translate(300,163)"/>
<path d="M0 0 C0 0.99 0 1.98 0 3 C-2.8125 3.6875 -2.8125 3.6875 -6 4 C-7.875 2.5625 -7.875 2.5625 -9 1 C-5.64919071 -1.10976881 -3.77897651 -1.0497157 0 0 Z " fill="#1D1D1D" transform="translate(269,163)"/>
<path d="M0 0 C1.10844919 3.32534757 0.84454356 5.62182575 0 9 C-1.32 8.34 -2.64 7.68 -4 7 C-4 5.35 -4 3.7 -4 2 C-3.34 1.67 -2.68 1.34 -2 1 C-1.34 1.33 -0.68 1.66 0 2 C0 1.34 0 0.68 0 0 Z " fill="#1E2020" transform="translate(206,158)"/>
<path d="M0 0 C1.32 0.66 2.64 1.32 4 2 C3.67 3.65 3.34 5.3 3 7 C1.68 7 0.36 7 -1 7 C-2 4 -2 4 -1.0625 1.8125 C-0.5365625 0.9153125 -0.5365625 0.9153125 0 0 Z " fill="#292A2C" transform="translate(312,165)"/>
<path d="M0 0 C1.32 0 2.64 0 4 0 C4 1.98 4 3.96 4 6 C2.35 5.67 0.7 5.34 -1 5 C-1.33 4.01 -1.66 3.02 -2 2 C-1.34 1.34 -0.68 0.68 0 0 Z " fill="#2B2B2B" transform="translate(331,162)"/>
<path d="M0 0 C0.66 0 1.32 0 2 0 C2.33 1.32 2.66 2.64 3 4 C-0.465 5.485 -0.465 5.485 -4 7 C-4.33 5.68 -4.66 4.36 -5 3 C-3.35 3 -1.7 3 0 3 C0 2.01 0 1.02 0 0 Z M-6 4 C-5.67 4.66 -5.34 5.32 -5 6 C-5.66 5.67 -6.32 5.34 -7 5 C-6.67 4.67 -6.34 4.34 -6 4 Z " fill="#232323" transform="translate(124,139)"/>
<path d="M0 0 C2.97 0.33 5.94 0.66 9 1 C7.02 1.99 7.02 1.99 5 3 C3.89506665 4.69950428 3.89506665 4.69950428 3.25 6.625 C2.63125 8.295625 2.63125 8.295625 2 10 C1.67 10 1.34 10 1 10 C1 7.69 1 5.38 1 3 C0.34 2.67 -0.32 2.34 -1 2 C-0.67 1.34 -0.34 0.68 0 0 Z " fill="#559DCB" transform="translate(297,215)"/>
<path d="M0 0 C-2.61514317 2.12038635 -5.19637616 4.13091744 -8 6 C-8.99 5.67 -9.98 5.34 -11 5 C-11 4.34 -11 3.68 -11 3 C-7.28026121 0.15549386 -4.62609198 -0.3227506 0 0 Z " fill="#2B2D2D" transform="translate(116,148)"/>
<path d="M0 0 C1.98 0 3.96 0 6 0 C6.33 0.66 6.66 1.32 7 2 C7.99 2.66 8.98 3.32 10 4 C7.03 4 4.06 4 1 4 C0.67 2.68 0.34 1.36 0 0 Z " fill="#191C1B" transform="translate(140,218)"/>
<path d="M0 0 C1.98 0.66 3.96 1.32 6 2 C6 2.66 6 3.32 6 4 C4.02 4.99 4.02 4.99 2 6 C2 5.34 2 4.68 2 4 C0.68 3.34 -0.64 2.68 -2 2 C-1.34 1.34 -0.68 0.68 0 0 Z " fill="#1581C5" transform="translate(255,224)"/>
<path d="M0 0 C0 0.66 0 1.32 0 2 C1.32 2.33 2.64 2.66 4 3 C-3.625 4 -3.625 4 -7 4 C-6.67 3.01 -6.34 2.02 -6 1 C-3 0 -3 0 0 0 Z " fill="#1A191C" transform="translate(223,164)"/>
<path d="M0 0 C1.32 1.32 2.64 2.64 4 4 C3.34 4 2.68 4 2 4 C2 4.99 2 5.98 2 7 C-0.475 6.01 -0.475 6.01 -3 5 C-2.67 4.01 -2.34 3.02 -2 2 C-1.34 2 -0.68 2 0 2 C0 1.34 0 0.68 0 0 Z " fill="#3590CB" transform="translate(261,226)"/>
<path d="M0 0 C-0.99 1.485 -0.99 1.485 -2 3 C-3.9453125 3.29296875 -3.9453125 3.29296875 -6.125 3.1875 C-7.40375 3.125625 -8.6825 3.06375 -10 3 C-9 1 -9 1 -6.125 -0.1875 C-3 -1 -3 -1 0 0 Z " fill="#ECEDED" transform="translate(132,226)"/>
<path d="M0 0 C0.99 0 1.98 0 3 0 C3 3.33333333 3 6.66666667 3 10 C2.01 9.67 1.02 9.34 0 9 C0 6.03 0 3.06 0 0 Z " fill="#50A0CD" transform="translate(257,216)"/>
<path d="M0 0 C0.66 0.33 1.32 0.66 2 1 C0.515 3.475 0.515 3.475 -1 6 C0.32 6.66 1.64 7.32 3 8 C0.69 8 -1.62 8 -4 8 C-3.50168276 4.31245243 -2.89932357 2.39509338 0 0 Z " fill="#545454" transform="translate(257,163)"/>
<path d="M0 0 C-0.33 1.32 -0.66 2.64 -1 4 C-3.875 4.125 -3.875 4.125 -7 4 C-7.66 3.34 -8.32 2.68 -9 2 C-5.86501708 0.14223235 -3.62528568 -0.20140476 0 0 Z " fill="#1C1C1C" transform="translate(78,220)"/>
<path d="M0 0 C1.134375 0.020625 2.26875 0.04125 3.4375 0.0625 C1.4575 1.0525 1.4575 1.0525 -0.5625 2.0625 C1.0875 2.3925 2.7375 2.7225 4.4375 3.0625 C2.10535852 4.26878008 -0.05892139 5.2279738 -2.5625 6.0625 C-2.5625 4.7425 -2.5625 3.4225 -2.5625 2.0625 C-3.2225 1.7325 -3.8825 1.4025 -4.5625 1.0625 C-3.5625 0.0625 -3.5625 0.0625 0 0 Z " fill="#1A7AAD" transform="translate(275.5625,210.9375)"/>
<path d="M0 0 C2.64 0 5.28 0 8 0 C8 0.99 8 1.98 8 3 C2.25 4.125 2.25 4.125 0 3 C0 2.01 0 1.02 0 0 Z " fill="#1382CA" transform="translate(300,230)"/>
<path d="M0 0 C0.99 0.33 1.98 0.66 3 1 C2.34 3.64 1.68 6.28 1 9 C0.34 9 -0.32 9 -1 9 C-1.125 2.25 -1.125 2.25 0 0 Z " fill="#0C82CD" transform="translate(295,217)"/>
<path d="M0 0 C0.66 0.66 1.32 1.32 2 2 C1.67 2.99 1.34 3.98 1 5 C-0.65 5.33 -2.3 5.66 -4 6 C-4.66 5.01 -5.32 4.02 -6 3 C-5.195625 2.690625 -4.39125 2.38125 -3.5625 2.0625 C-1.10919595 1.23664655 -1.10919595 1.23664655 0 0 Z " fill="#3798D5" transform="translate(312,214)"/>
<path d="M0 0 C1.4540625 0.0309375 1.4540625 0.0309375 2.9375 0.0625 C2.9375 1.0525 2.9375 2.0425 2.9375 3.0625 C0.44685112 3.74957555 -1.44136292 4.0625 -4.0625 4.0625 C-4.0625 0.08290816 -4.0625 0.08290816 0 0 Z " fill="#1A1B1C" transform="translate(301.0625,173.9375)"/>
<path d="M0 0 C0.33 0 0.66 0 1 0 C1 1.98 1 3.96 1 6 C-0.65 6 -2.3 6 -4 6 C-4 4.68 -4 3.36 -4 2 C-2.68 2 -1.36 2 0 2 C0 1.34 0 0.68 0 0 Z " fill="#1380C3" transform="translate(92,164)"/>
<path d="M0 0 C0.6875 1.8125 0.6875 1.8125 1 4 C-0.25 5.75 -0.25 5.75 -2 7 C-2.99 7 -3.98 7 -5 7 C-5 6.01 -5 5.02 -5 4 C-4.01 4 -3.02 4 -2 4 C-1.34 2.68 -0.68 1.36 0 0 Z " fill="#515151" transform="translate(289,153)"/>
<path d="M0 0 C1.65 0 3.3 0 5 0 C5 1.32 5 2.64 5 4 C3.02 4 1.04 4 -1 4 C-0.67 2.68 -0.34 1.36 0 0 Z " fill="#1D1F1F" transform="translate(117,224)"/>
<path d="M0 0 C2.97 0 5.94 0 9 0 C7.3125 1.5625 7.3125 1.5625 5 3 C2.25 2.6875 2.25 2.6875 0 2 C0 1.34 0 0.68 0 0 Z " fill="#1C1E1E" transform="translate(61,218)"/>
<path d="M0 0 C2.97 0 5.94 0 9 0 C9 0.66 9 1.32 9 2 C5.8035914 3.06546953 3.34252724 3.07427838 0 3 C0 2.01 0 1.02 0 0 Z " fill="#609CBF" transform="translate(258,210)"/>
<path d="M0 0 C0.33 0 0.66 0 1 0 C1.125 2.375 1.125 2.375 1 5 C-1 7 -1 7 -3.625 7.125 C-4.40875 7.08375 -5.1925 7.0425 -6 7 C-5.01 6.34 -4.02 5.68 -3 5 C-3.99 4.34 -4.98 3.68 -6 3 C-4.35 3 -2.7 3 -1 3 C-0.67 2.01 -0.34 1.02 0 0 Z " fill="#76B5DC" transform="translate(213,201)"/>
<path d="M0 0 C3.3 0 6.6 0 10 0 C9.67 0.99 9.34 1.98 9 3 C6.9375 3.6875 6.9375 3.6875 5 4 C4.67 3.34 4.34 2.68 4 2 C2.68 1.34 1.36 0.68 0 0 Z " fill="#424242" transform="translate(300,162)"/>
<path d="M0 0 C0.66 0.33 1.32 0.66 2 1 C0.515 3.475 0.515 3.475 -1 6 C-2.65 5.67 -4.3 5.34 -6 5 C-5.195625 4.360625 -4.39125 3.72125 -3.5625 3.0625 C-1.7249496 1.59396498 -1.7249496 1.59396498 0 0 Z " fill="#494B4A" transform="translate(109,145)"/>
<path d="M0 0 C2.475 0.99 2.475 0.99 5 2 C4.360625 2.103125 3.72125 2.20625 3.0625 2.3125 C2.381875 2.539375 1.70125 2.76625 1 3 C0.67 3.99 0.34 4.98 0 6 C-0.99 5.34 -1.98 4.68 -3 4 C-2.01 2.68 -1.02 1.36 0 0 Z " fill="#3A3A3A" transform="translate(95,144)"/>
<path d="M0 0 C0.66 0 1.32 0 2 0 C1.125 7.75 1.125 7.75 0 10 C-0.66 10 -1.32 10 -2 10 C-1.33333333 6.66666667 -0.66666667 3.33333333 0 0 Z " fill="#3492C5" transform="translate(271,224)"/>
<path d="M0 0 C-0.33 0.99 -0.66 1.98 -1 3 C-3.31 3.33 -5.62 3.66 -8 4 C-7.67 3.01 -7.34 2.02 -7 1 C-4 0 -4 0 0 0 Z " fill="#5FA2CA" transform="translate(233,209)"/>
<path d="M0 0 C0.33 1.32 0.66 2.64 1 4 C-1.52053595 5.26026798 -2.8542098 4.91874445 -5.625 4.5625 C-6.85089844 4.40974609 -6.85089844 4.40974609 -8.1015625 4.25390625 C-9.04128906 4.12822266 -9.04128906 4.12822266 -10 4 C-10 3.67 -10 3.34 -10 3 C-6.7 2.67 -3.4 2.34 0 2 C0 1.34 0 0.68 0 0 Z " fill="#535656" transform="translate(309,170)"/>
<path d="M0 0 C1.875 0.1875 1.875 0.1875 4 1 C5.3125 3.4375 5.3125 3.4375 6 6 C5.67 6.66 5.34 7.32 5 8 C4.16382818 6.8562364 3.33113541 5.70992861 2.5 4.5625 C2.0359375 3.92441406 1.571875 3.28632813 1.09375 2.62890625 C0 1 0 1 0 0 Z " fill="#65A9CD" transform="translate(253,227)"/>
<path d="M0 0 C0.99 0.33 1.98 0.66 3 1 C2.1875 3.4375 2.1875 3.4375 1 6 C0.01 6.33 -0.98 6.66 -2 7 C-2 5.68 -2 4.36 -2 3 C-1.34 2.67 -0.68 2.34 0 2 C0 1.34 0 0.68 0 0 Z " fill="#323233" transform="translate(310,163)"/>
<path d="M0 0 C2.1875 0.3125 2.1875 0.3125 4 1 C2.75 2.5625 2.75 2.5625 1 4 C-1.1875 3.6875 -1.1875 3.6875 -3 3 C-1.75 1.4375 -1.75 1.4375 0 0 Z " fill="#222222" transform="translate(76,138)"/>
<path d="M0 0 C0.33 0 0.66 0 1 0 C1.33 2.64 1.66 5.28 2 8 C1.01 8.66 0.02 9.32 -1 10 C-1.66 9.34 -2.32 8.68 -3 8 C-2.34 8 -1.68 8 -1 8 C-0.67 5.36 -0.34 2.72 0 0 Z " fill="#6BAFD4" transform="translate(309,220)"/>
<path d="M0 0 C1.32 0 2.64 0 4 0 C3.625 2.9375 3.625 2.9375 3 6 C2.01 6.495 2.01 6.495 1 7 C0.67 4.69 0.34 2.38 0 0 Z " fill="#1A7DBA" transform="translate(309,219)"/>
<path d="M0 0 C3.26954202 0.56371414 4.82575883 1.49962266 7 4 C6 6 6 6 4 7 C3.566875 5.5459375 3.566875 5.5459375 3.125 4.0625 C2.35785318 0.89335797 2.35785318 0.89335797 0 0 Z " fill="#5FA3CC" transform="translate(348,210)"/>
<path d="M0 0 C1.98 0.66 3.96 1.32 6 2 C4.68 2.99 3.36 3.98 2 5 C1.34 4.67 0.68 4.34 0 4 C0 2.68 0 1.36 0 0 Z " fill="#343434" transform="translate(89,141)"/>
<path d="M0 0 C1.2065625 0.0309375 1.2065625 0.0309375 2.4375 0.0625 C2.1075 1.0525 1.7775 2.0425 1.4375 3.0625 C-0.625 3.75 -0.625 3.75 -2.5625 4.0625 C-2.8925 3.0725 -3.2225 2.0825 -3.5625 1.0625 C-2.5625 0.0625 -2.5625 0.0625 0 0 Z " fill="#303030" transform="translate(74.5625,135.9375)"/>
<path d="" fill="#D7FFFF" transform="translate(0,0)"/>
</svg>
